ISO-10303-21;
HEADER;
/*Generated by software containing ST-Developer
 * from STEP Tools, Inc. (www.steptools.com) 
 */
/*OPTION: using custom renumber hook */
/*description */
/*implementation_level */
FILE_DESCRIPTION(('STEP AP242 Edition 2','STEP AP242 Edition 2''CAx-IF Rec.Pracs.---Representation and Presentation of Product Manufa
cturing Information (PMI)---4.0---2014-10-13','STEP AP242 Edition 2''CAx-IF Rec.Pracs.---Representation and Presentation of Product Manufa
cturing Information (PMI)---4.0---2014-10-13''CAx-IF Rec.Pracs.---3D Tessellated Geometry---0.4---2014-09-14','STEP AP242 Edition 2''CAx-IF Rec.Pracs.---Representation and Presentation of Product Manufa
cturing Information (PMI)---4.0---2014-10-13''CAx-IF Rec.Pracs.---3D Tessellated Geometry---0.4---2014-09-14''2;1','STEP AP242 Edition 2''CAx-IF Rec.Pracs.---Representation and Presentation of Product Manufa
cturing Information (PMI)---4.0---2014-10-13''CAx-IF Rec.Pracs.---3D Tessellated Geometry---0.4---2014-09-14''2;1''CAx-IF Rec.Pracs.---User Defined Attributes---1.5---2016-08-15'),'2;1');
/*name */
/*time_stamp */
/*author */
/*organization */
/*preprocessor_version */
/*originating_system */
/*authorisation */
FILE_NAME('/vol/tmp/translate-4770514413580189235/Part Studio 1 - Part 2.step','2026-05-06T11:47:02',(''),(''),'ST-DEVELOPER v20','ONSHAPE BY PTC INC, 1.214','  ');
FILE_SCHEMA(('AP242_MANAGED_MODEL_BASED_3D_ENGINEERING_MIM_LF { 1 0 10303 442 3 1 4 }'));
ENDSEC;
DATA;
#10=SHAPE_REPRESENTATION_RELATIONSHIP('','',#1121,#11);
#11=ADVANCED_BREP_SHAPE_REPRESENTATION('',(#1119),#1903);
#12=CONICAL_SURFACE('',#1239,0.0012,0.785398163397449);
#13=CONICAL_SURFACE('',#1240,0.0012,0.785398163397449);
#14=CONICAL_SURFACE('',#1241,0.00195,0.785398163397449);
#15=CONICAL_SURFACE('',#1242,0.0012,0.785398163397449);
#16=CYLINDRICAL_SURFACE('',#1183,0.00199999999999925);
#17=CYLINDRICAL_SURFACE('',#1185,0.00200000000000014);
#18=CYLINDRICAL_SURFACE('',#1187,0.0025);
#19=CYLINDRICAL_SURFACE('',#1189,0.0025);
#20=CYLINDRICAL_SURFACE('',#1191,0.00200000000000032);
#21=CYLINDRICAL_SURFACE('',#1193,0.00200000000000025);
#22=CYLINDRICAL_SURFACE('',#1195,0.00200000000000011);
#23=CYLINDRICAL_SURFACE('',#1197,0.00200000000000031);
#24=CYLINDRICAL_SURFACE('',#1200,0.0019);
#25=CYLINDRICAL_SURFACE('',#1201,0.00399999999998835);
#26=CYLINDRICAL_SURFACE('',#1202,0.00299999999999991);
#27=CYLINDRICAL_SURFACE('',#1204,0.00300000000000005);
#28=CYLINDRICAL_SURFACE('',#1206,0.00300000000000011);
#29=CYLINDRICAL_SURFACE('',#1207,0.00399999999999378);
#30=CYLINDRICAL_SURFACE('',#1208,0.00190000000000009);
#31=CYLINDRICAL_SURFACE('',#1211,0.0020000000000002);
#32=CYLINDRICAL_SURFACE('',#1213,0.00199999999999987);
#33=CYLINDRICAL_SURFACE('',#1214,0.0012);
#34=CYLINDRICAL_SURFACE('',#1216,0.0012);
#35=CYLINDRICAL_SURFACE('',#1218,0.0012);
#36=CYLINDRICAL_SURFACE('',#1220,0.0012);
#37=CYLINDRICAL_SURFACE('',#1223,0.000500000000000011);
#38=CYLINDRICAL_SURFACE('',#1225,0.000500000000000023);
#39=CYLINDRICAL_SURFACE('',#1227,0.0005);
#40=CYLINDRICAL_SURFACE('',#1229,0.00050000000000006);
#41=CYLINDRICAL_SURFACE('',#1232,0.0005);
#42=CYLINDRICAL_SURFACE('',#1234,0.000500000000000047);
#43=CYLINDRICAL_SURFACE('',#1236,0.000500000000000035);
#44=CYLINDRICAL_SURFACE('',#1238,0.000500000000000055);
#45=LINE('',#1592,#139);
#46=LINE('',#1596,#140);
#47=LINE('',#1600,#141);
#48=LINE('',#1604,#142);
#49=LINE('',#1608,#143);
#50=LINE('',#1612,#144);
#51=LINE('',#1616,#145);
#52=LINE('',#1620,#146);
#53=LINE('',#1622,#147);
#54=LINE('',#1630,#148);
#55=LINE('',#1634,#149);
#56=LINE('',#1642,#150);
#57=LINE('',#1644,#151);
#58=LINE('',#1648,#152);
#59=LINE('',#1652,#153);
#60=LINE('',#1653,#154);
#61=LINE('',#1658,#155);
#62=LINE('',#1662,#156);
#63=LINE('',#1666,#157);
#64=LINE('',#1672,#158);
#65=LINE('',#1676,#159);
#66=LINE('',#1680,#160);
#67=LINE('',#1684,#161);
#68=LINE('',#1689,#162);
#69=LINE('',#1693,#163);
#70=LINE('',#1697,#164);
#71=LINE('',#1701,#165);
#72=LINE('',#1713,#166);
#73=LINE('',#1717,#167);
#74=LINE('',#1721,#168);
#75=LINE('',#1723,#169);
#76=LINE('',#1731,#170);
#77=LINE('',#1735,#171);
#78=LINE('',#1743,#172);
#79=LINE('',#1745,#173);
#80=LINE('',#1749,#174);
#81=LINE('',#1753,#175);
#82=LINE('',#1757,#176);
#83=LINE('',#1761,#177);
#84=LINE('',#1765,#178);
#85=LINE('',#1769,#179);
#86=LINE('',#1773,#180);
#87=LINE('',#1774,#181);
#88=LINE('',#1779,#182);
#89=LINE('',#1783,#183);
#90=LINE('',#1787,#184);
#91=LINE('',#1791,#185);
#92=LINE('',#1792,#186);
#93=LINE('',#1794,#187);
#94=LINE('',#1796,#188);
#95=LINE('',#1798,#189);
#96=LINE('',#1800,#190);
#97=LINE('',#1802,#191);
#98=LINE('',#1804,#192);
#99=LINE('',#1806,#193);
#100=LINE('',#1808,#194);
#101=LINE('',#1810,#195);
#102=LINE('',#1812,#196);
#103=LINE('',#1814,#197);
#104=LINE('',#1816,#198);
#105=LINE('',#1818,#199);
#106=LINE('',#1820,#200);
#107=LINE('',#1822,#201);
#108=LINE('',#1824,#202);
#109=LINE('',#1826,#203);
#110=LINE('',#1828,#204);
#111=LINE('',#1830,#205);
#112=LINE('',#1832,#206);
#113=LINE('',#1834,#207);
#114=LINE('',#1836,#208);
#115=LINE('',#1838,#209);
#116=LINE('',#1840,#210);
#117=LINE('',#1842,#211);
#118=LINE('',#1844,#212);
#119=LINE('',#1846,#213);
#120=LINE('',#1848,#214);
#121=LINE('',#1850,#215);
#122=LINE('',#1852,#216);
#123=LINE('',#1867,#217);
#124=LINE('',#1868,#218);
#125=LINE('',#1870,#219);
#126=LINE('',#1872,#220);
#127=LINE('',#1874,#221);
#128=LINE('',#1876,#222);
#129=LINE('',#1878,#223);
#130=LINE('',#1880,#224);
#131=LINE('',#1883,#225);
#132=LINE('',#1884,#226);
#133=LINE('',#1886,#227);
#134=LINE('',#1888,#228);
#135=LINE('',#1890,#229);
#136=LINE('',#1892,#230);
#137=LINE('',#1894,#231);
#138=LINE('',#1896,#232);
#139=VECTOR('',#1257,1.);
#140=VECTOR('',#1260,1.);
#141=VECTOR('',#1263,1.);
#142=VECTOR('',#1266,1.);
#143=VECTOR('',#1269,1.);
#144=VECTOR('',#1272,1.);
#145=VECTOR('',#1275,1.);
#146=VECTOR('',#1278,1.);
#147=VECTOR('',#1279,1.);
#148=VECTOR('',#1286,1.);
#149=VECTOR('',#1289,1.);
#150=VECTOR('',#1296,1.);
#151=VECTOR('',#1297,1.);
#152=VECTOR('',#1300,1.);
#153=VECTOR('',#1303,1.);
#154=VECTOR('',#1304,1.);
#155=VECTOR('',#1307,1.);
#156=VECTOR('',#1310,1.);
#157=VECTOR('',#1313,1.);
#158=VECTOR('',#1318,1.);
#159=VECTOR('',#1321,1.);
#160=VECTOR('',#1324,1.);
#161=VECTOR('',#1327,1.);
#162=VECTOR('',#1332,1.);
#163=VECTOR('',#1335,1.);
#164=VECTOR('',#1338,1.);
#165=VECTOR('',#1341,1.);
#166=VECTOR('',#1352,1.);
#167=VECTOR('',#1355,1.);
#168=VECTOR('',#1358,1.);
#169=VECTOR('',#1359,1.);
#170=VECTOR('',#1366,1.);
#171=VECTOR('',#1369,1.);
#172=VECTOR('',#1376,1.);
#173=VECTOR('',#1377,1.);
#174=VECTOR('',#1380,1.);
#175=VECTOR('',#1383,1.);
#176=VECTOR('',#1386,1.);
#177=VECTOR('',#1389,1.);
#178=VECTOR('',#1392,1.);
#179=VECTOR('',#1395,1.);
#180=VECTOR('',#1398,1.);
#181=VECTOR('',#1399,1.);
#182=VECTOR('',#1402,1.);
#183=VECTOR('',#1405,1.);
#184=VECTOR('',#1408,1.);
#185=VECTOR('',#1413,1.);
#186=VECTOR('',#1414,1.);
#187=VECTOR('',#1417,1.);
#188=VECTOR('',#1420,1.);
#189=VECTOR('',#1423,1.);
#190=VECTOR('',#1426,1.);
#191=VECTOR('',#1429,1.);
#192=VECTOR('',#1432,1.);
#193=VECTOR('',#1435,1.);
#194=VECTOR('',#1438,1.);
#195=VECTOR('',#1441,1.);
#196=VECTOR('',#1444,1.);
#197=VECTOR('',#1447,1.);
#198=VECTOR('',#1450,1.);
#199=VECTOR('',#1453,1.);
#200=VECTOR('',#1456,1.);
#201=VECTOR('',#1459,1.);
#202=VECTOR('',#1462,1.);
#203=VECTOR('',#1465,1.);
#204=VECTOR('',#1468,1.);
#205=VECTOR('',#1471,1.);
#206=VECTOR('',#1474,1.);
#207=VECTOR('',#1477,1.);
#208=VECTOR('',#1480,1.);
#209=VECTOR('',#1483,1.);
#210=VECTOR('',#1486,1.);
#211=VECTOR('',#1489,1.);
#212=VECTOR('',#1492,1.);
#213=VECTOR('',#1495,1.);
#214=VECTOR('',#1498,1.);
#215=VECTOR('',#1501,1.);
#216=VECTOR('',#1504,1.);
#217=VECTOR('',#1525,1.);
#218=VECTOR('',#1526,1.);
#219=VECTOR('',#1529,1.);
#220=VECTOR('',#1532,1.);
#221=VECTOR('',#1535,1.);
#222=VECTOR('',#1538,1.);
#223=VECTOR('',#1541,1.);
#224=VECTOR('',#1544,1.);
#225=VECTOR('',#1549,1.);
#226=VECTOR('',#1550,1.);
#227=VECTOR('',#1553,1.);
#228=VECTOR('',#1556,1.);
#229=VECTOR('',#1559,1.);
#230=VECTOR('',#1562,1.);
#231=VECTOR('',#1565,1.);
#232=VECTOR('',#1568,1.);
#233=ORIENTED_EDGE('',*,*,#545,.T.);
#234=ORIENTED_EDGE('',*,*,#546,.T.);
#235=ORIENTED_EDGE('',*,*,#547,.T.);
#236=ORIENTED_EDGE('',*,*,#548,.T.);
#237=ORIENTED_EDGE('',*,*,#549,.F.);
#238=ORIENTED_EDGE('',*,*,#550,.T.);
#239=ORIENTED_EDGE('',*,*,#551,.T.);
#240=ORIENTED_EDGE('',*,*,#552,.F.);
#241=ORIENTED_EDGE('',*,*,#553,.T.);
#242=ORIENTED_EDGE('',*,*,#554,.F.);
#243=ORIENTED_EDGE('',*,*,#555,.T.);
#244=ORIENTED_EDGE('',*,*,#556,.F.);
#245=ORIENTED_EDGE('',*,*,#557,.T.);
#246=ORIENTED_EDGE('',*,*,#558,.F.);
#247=ORIENTED_EDGE('',*,*,#559,.F.);
#248=ORIENTED_EDGE('',*,*,#560,.F.);
#249=ORIENTED_EDGE('',*,*,#561,.F.);
#250=ORIENTED_EDGE('',*,*,#562,.F.);
#251=ORIENTED_EDGE('',*,*,#563,.T.);
#252=ORIENTED_EDGE('',*,*,#564,.T.);
#253=ORIENTED_EDGE('',*,*,#565,.T.);
#254=ORIENTED_EDGE('',*,*,#566,.T.);
#255=ORIENTED_EDGE('',*,*,#567,.T.);
#256=ORIENTED_EDGE('',*,*,#568,.T.);
#257=ORIENTED_EDGE('',*,*,#569,.T.);
#258=ORIENTED_EDGE('',*,*,#570,.F.);
#259=ORIENTED_EDGE('',*,*,#571,.T.);
#260=ORIENTED_EDGE('',*,*,#572,.T.);
#261=ORIENTED_EDGE('',*,*,#573,.T.);
#262=ORIENTED_EDGE('',*,*,#574,.T.);
#263=ORIENTED_EDGE('',*,*,#575,.F.);
#264=ORIENTED_EDGE('',*,*,#576,.F.);
#265=ORIENTED_EDGE('',*,*,#577,.T.);
#266=ORIENTED_EDGE('',*,*,#578,.T.);
#267=ORIENTED_EDGE('',*,*,#579,.F.);
#268=ORIENTED_EDGE('',*,*,#580,.T.);
#269=ORIENTED_EDGE('',*,*,#581,.T.);
#270=ORIENTED_EDGE('',*,*,#582,.T.);
#271=ORIENTED_EDGE('',*,*,#583,.T.);
#272=ORIENTED_EDGE('',*,*,#584,.T.);
#273=ORIENTED_EDGE('',*,*,#585,.F.);
#274=ORIENTED_EDGE('',*,*,#586,.T.);
#275=ORIENTED_EDGE('',*,*,#587,.T.);
#276=ORIENTED_EDGE('',*,*,#588,.T.);
#277=ORIENTED_EDGE('',*,*,#589,.F.);
#278=ORIENTED_EDGE('',*,*,#590,.T.);
#279=ORIENTED_EDGE('',*,*,#591,.F.);
#280=ORIENTED_EDGE('',*,*,#592,.F.);
#281=ORIENTED_EDGE('',*,*,#593,.F.);
#282=ORIENTED_EDGE('',*,*,#594,.F.);
#283=ORIENTED_EDGE('',*,*,#595,.F.);
#284=ORIENTED_EDGE('',*,*,#596,.F.);
#285=ORIENTED_EDGE('',*,*,#597,.F.);
#286=ORIENTED_EDGE('',*,*,#598,.F.);
#287=ORIENTED_EDGE('',*,*,#599,.F.);
#288=ORIENTED_EDGE('',*,*,#600,.F.);
#289=ORIENTED_EDGE('',*,*,#601,.F.);
#290=ORIENTED_EDGE('',*,*,#602,.T.);
#291=ORIENTED_EDGE('',*,*,#603,.F.);
#292=ORIENTED_EDGE('',*,*,#604,.F.);
#293=ORIENTED_EDGE('',*,*,#605,.F.);
#294=ORIENTED_EDGE('',*,*,#606,.T.);
#295=ORIENTED_EDGE('',*,*,#607,.T.);
#296=ORIENTED_EDGE('',*,*,#608,.T.);
#297=ORIENTED_EDGE('',*,*,#609,.T.);
#298=ORIENTED_EDGE('',*,*,#610,.F.);
#299=ORIENTED_EDGE('',*,*,#611,.T.);
#300=ORIENTED_EDGE('',*,*,#612,.F.);
#301=ORIENTED_EDGE('',*,*,#613,.F.);
#302=ORIENTED_EDGE('',*,*,#614,.T.);
#303=ORIENTED_EDGE('',*,*,#615,.T.);
#304=ORIENTED_EDGE('',*,*,#616,.F.);
#305=ORIENTED_EDGE('',*,*,#617,.F.);
#306=ORIENTED_EDGE('',*,*,#618,.F.);
#307=ORIENTED_EDGE('',*,*,#619,.F.);
#308=ORIENTED_EDGE('',*,*,#620,.T.);
#309=ORIENTED_EDGE('',*,*,#621,.F.);
#310=ORIENTED_EDGE('',*,*,#622,.F.);
#311=ORIENTED_EDGE('',*,*,#623,.F.);
#312=ORIENTED_EDGE('',*,*,#624,.F.);
#313=ORIENTED_EDGE('',*,*,#625,.F.);
#314=ORIENTED_EDGE('',*,*,#626,.F.);
#315=ORIENTED_EDGE('',*,*,#627,.F.);
#316=ORIENTED_EDGE('',*,*,#628,.T.);
#317=ORIENTED_EDGE('',*,*,#629,.T.);
#318=ORIENTED_EDGE('',*,*,#630,.T.);
#319=ORIENTED_EDGE('',*,*,#631,.T.);
#320=ORIENTED_EDGE('',*,*,#632,.T.);
#321=ORIENTED_EDGE('',*,*,#633,.F.);
#322=ORIENTED_EDGE('',*,*,#634,.T.);
#323=ORIENTED_EDGE('',*,*,#635,.F.);
#324=ORIENTED_EDGE('',*,*,#636,.T.);
#325=ORIENTED_EDGE('',*,*,#637,.F.);
#326=ORIENTED_EDGE('',*,*,#638,.T.);
#327=ORIENTED_EDGE('',*,*,#639,.F.);
#328=ORIENTED_EDGE('',*,*,#640,.F.);
#329=ORIENTED_EDGE('',*,*,#641,.F.);
#330=ORIENTED_EDGE('',*,*,#642,.T.);
#331=ORIENTED_EDGE('',*,*,#643,.T.);
#332=ORIENTED_EDGE('',*,*,#644,.T.);
#333=ORIENTED_EDGE('',*,*,#645,.T.);
#334=ORIENTED_EDGE('',*,*,#646,.T.);
#335=ORIENTED_EDGE('',*,*,#647,.T.);
#336=ORIENTED_EDGE('',*,*,#648,.T.);
#337=ORIENTED_EDGE('',*,*,#609,.F.);
#338=ORIENTED_EDGE('',*,*,#649,.F.);
#339=ORIENTED_EDGE('',*,*,#549,.T.);
#340=ORIENTED_EDGE('',*,*,#650,.T.);
#341=ORIENTED_EDGE('',*,*,#640,.T.);
#342=ORIENTED_EDGE('',*,*,#651,.F.);
#343=ORIENTED_EDGE('',*,*,#550,.F.);
#344=ORIENTED_EDGE('',*,*,#649,.T.);
#345=ORIENTED_EDGE('',*,*,#639,.T.);
#346=ORIENTED_EDGE('',*,*,#652,.F.);
#347=ORIENTED_EDGE('',*,*,#551,.F.);
#348=ORIENTED_EDGE('',*,*,#651,.T.);
#349=ORIENTED_EDGE('',*,*,#638,.F.);
#350=ORIENTED_EDGE('',*,*,#653,.F.);
#351=ORIENTED_EDGE('',*,*,#552,.T.);
#352=ORIENTED_EDGE('',*,*,#652,.T.);
#353=ORIENTED_EDGE('',*,*,#637,.T.);
#354=ORIENTED_EDGE('',*,*,#654,.F.);
#355=ORIENTED_EDGE('',*,*,#553,.F.);
#356=ORIENTED_EDGE('',*,*,#653,.T.);
#357=ORIENTED_EDGE('',*,*,#636,.F.);
#358=ORIENTED_EDGE('',*,*,#655,.F.);
#359=ORIENTED_EDGE('',*,*,#554,.T.);
#360=ORIENTED_EDGE('',*,*,#654,.T.);
#361=ORIENTED_EDGE('',*,*,#635,.T.);
#362=ORIENTED_EDGE('',*,*,#656,.F.);
#363=ORIENTED_EDGE('',*,*,#555,.F.);
#364=ORIENTED_EDGE('',*,*,#655,.T.);
#365=ORIENTED_EDGE('',*,*,#634,.F.);
#366=ORIENTED_EDGE('',*,*,#657,.F.);
#367=ORIENTED_EDGE('',*,*,#556,.T.);
#368=ORIENTED_EDGE('',*,*,#656,.T.);
#369=ORIENTED_EDGE('',*,*,#633,.T.);
#370=ORIENTED_EDGE('',*,*,#658,.F.);
#371=ORIENTED_EDGE('',*,*,#557,.F.);
#372=ORIENTED_EDGE('',*,*,#657,.T.);
#373=ORIENTED_EDGE('',*,*,#632,.F.);
#374=ORIENTED_EDGE('',*,*,#659,.F.);
#375=ORIENTED_EDGE('',*,*,#558,.T.);
#376=ORIENTED_EDGE('',*,*,#658,.T.);
#377=ORIENTED_EDGE('',*,*,#631,.F.);
#378=ORIENTED_EDGE('',*,*,#660,.F.);
#379=ORIENTED_EDGE('',*,*,#559,.T.);
#380=ORIENTED_EDGE('',*,*,#659,.T.);
#381=ORIENTED_EDGE('',*,*,#630,.F.);
#382=ORIENTED_EDGE('',*,*,#661,.F.);
#383=ORIENTED_EDGE('',*,*,#560,.T.);
#384=ORIENTED_EDGE('',*,*,#660,.T.);
#385=ORIENTED_EDGE('',*,*,#629,.F.);
#386=ORIENTED_EDGE('',*,*,#662,.F.);
#387=ORIENTED_EDGE('',*,*,#561,.T.);
#388=ORIENTED_EDGE('',*,*,#661,.T.);
#389=ORIENTED_EDGE('',*,*,#628,.F.);
#390=ORIENTED_EDGE('',*,*,#663,.F.);
#391=ORIENTED_EDGE('',*,*,#562,.T.);
#392=ORIENTED_EDGE('',*,*,#662,.T.);
#393=ORIENTED_EDGE('',*,*,#627,.T.);
#394=ORIENTED_EDGE('',*,*,#664,.F.);
#395=ORIENTED_EDGE('',*,*,#563,.F.);
#396=ORIENTED_EDGE('',*,*,#663,.T.);
#397=ORIENTED_EDGE('',*,*,#626,.T.);
#398=ORIENTED_EDGE('',*,*,#665,.F.);
#399=ORIENTED_EDGE('',*,*,#564,.F.);
#400=ORIENTED_EDGE('',*,*,#664,.T.);
#401=ORIENTED_EDGE('',*,*,#625,.T.);
#402=ORIENTED_EDGE('',*,*,#666,.F.);
#403=ORIENTED_EDGE('',*,*,#565,.F.);
#404=ORIENTED_EDGE('',*,*,#665,.T.);
#405=ORIENTED_EDGE('',*,*,#624,.T.);
#406=ORIENTED_EDGE('',*,*,#667,.F.);
#407=ORIENTED_EDGE('',*,*,#566,.F.);
#408=ORIENTED_EDGE('',*,*,#666,.T.);
#409=ORIENTED_EDGE('',*,*,#623,.T.);
#410=ORIENTED_EDGE('',*,*,#668,.F.);
#411=ORIENTED_EDGE('',*,*,#567,.F.);
#412=ORIENTED_EDGE('',*,*,#667,.T.);
#413=ORIENTED_EDGE('',*,*,#622,.T.);
#414=ORIENTED_EDGE('',*,*,#669,.F.);
#415=ORIENTED_EDGE('',*,*,#568,.F.);
#416=ORIENTED_EDGE('',*,*,#668,.T.);
#417=ORIENTED_EDGE('',*,*,#621,.T.);
#418=ORIENTED_EDGE('',*,*,#670,.F.);
#419=ORIENTED_EDGE('',*,*,#569,.F.);
#420=ORIENTED_EDGE('',*,*,#669,.T.);
#421=ORIENTED_EDGE('',*,*,#620,.F.);
#422=ORIENTED_EDGE('',*,*,#671,.F.);
#423=ORIENTED_EDGE('',*,*,#570,.T.);
#424=ORIENTED_EDGE('',*,*,#670,.T.);
#425=ORIENTED_EDGE('',*,*,#619,.T.);
#426=ORIENTED_EDGE('',*,*,#672,.F.);
#427=ORIENTED_EDGE('',*,*,#571,.F.);
#428=ORIENTED_EDGE('',*,*,#671,.T.);
#429=ORIENTED_EDGE('',*,*,#618,.T.);
#430=ORIENTED_EDGE('',*,*,#673,.F.);
#431=ORIENTED_EDGE('',*,*,#572,.F.);
#432=ORIENTED_EDGE('',*,*,#672,.T.);
#433=ORIENTED_EDGE('',*,*,#617,.T.);
#434=ORIENTED_EDGE('',*,*,#674,.F.);
#435=ORIENTED_EDGE('',*,*,#573,.F.);
#436=ORIENTED_EDGE('',*,*,#673,.T.);
#437=ORIENTED_EDGE('',*,*,#616,.T.);
#438=ORIENTED_EDGE('',*,*,#675,.F.);
#439=ORIENTED_EDGE('',*,*,#574,.F.);
#440=ORIENTED_EDGE('',*,*,#674,.T.);
#441=ORIENTED_EDGE('',*,*,#615,.F.);
#442=ORIENTED_EDGE('',*,*,#676,.F.);
#443=ORIENTED_EDGE('',*,*,#575,.T.);
#444=ORIENTED_EDGE('',*,*,#675,.T.);
#445=ORIENTED_EDGE('',*,*,#614,.F.);
#446=ORIENTED_EDGE('',*,*,#677,.F.);
#447=ORIENTED_EDGE('',*,*,#576,.T.);
#448=ORIENTED_EDGE('',*,*,#676,.T.);
#449=ORIENTED_EDGE('',*,*,#613,.T.);
#450=ORIENTED_EDGE('',*,*,#678,.F.);
#451=ORIENTED_EDGE('',*,*,#577,.F.);
#452=ORIENTED_EDGE('',*,*,#677,.T.);
#453=ORIENTED_EDGE('',*,*,#612,.T.);
#454=ORIENTED_EDGE('',*,*,#679,.F.);
#455=ORIENTED_EDGE('',*,*,#578,.F.);
#456=ORIENTED_EDGE('',*,*,#678,.T.);
#457=ORIENTED_EDGE('',*,*,#611,.F.);
#458=ORIENTED_EDGE('',*,*,#680,.F.);
#459=ORIENTED_EDGE('',*,*,#579,.T.);
#460=ORIENTED_EDGE('',*,*,#679,.T.);
#461=ORIENTED_EDGE('',*,*,#681,.T.);
#462=ORIENTED_EDGE('',*,*,#608,.F.);
#463=ORIENTED_EDGE('',*,*,#682,.T.);
#464=ORIENTED_EDGE('',*,*,#607,.F.);
#465=ORIENTED_EDGE('',*,*,#683,.T.);
#466=ORIENTED_EDGE('',*,*,#606,.F.);
#467=ORIENTED_EDGE('',*,*,#684,.T.);
#468=ORIENTED_EDGE('',*,*,#605,.T.);
#469=ORIENTED_EDGE('',*,*,#610,.T.);
#470=ORIENTED_EDGE('',*,*,#650,.F.);
#471=ORIENTED_EDGE('',*,*,#580,.F.);
#472=ORIENTED_EDGE('',*,*,#680,.T.);
#473=ORIENTED_EDGE('',*,*,#597,.T.);
#474=ORIENTED_EDGE('',*,*,#685,.T.);
#475=ORIENTED_EDGE('',*,*,#582,.F.);
#476=ORIENTED_EDGE('',*,*,#686,.F.);
#477=ORIENTED_EDGE('',*,*,#598,.T.);
#478=ORIENTED_EDGE('',*,*,#686,.T.);
#479=ORIENTED_EDGE('',*,*,#581,.F.);
#480=ORIENTED_EDGE('',*,*,#687,.F.);
#481=ORIENTED_EDGE('',*,*,#599,.T.);
#482=ORIENTED_EDGE('',*,*,#687,.T.);
#483=ORIENTED_EDGE('',*,*,#588,.F.);
#484=ORIENTED_EDGE('',*,*,#688,.F.);
#485=ORIENTED_EDGE('',*,*,#600,.T.);
#486=ORIENTED_EDGE('',*,*,#688,.T.);
#487=ORIENTED_EDGE('',*,*,#587,.F.);
#488=ORIENTED_EDGE('',*,*,#689,.F.);
#489=ORIENTED_EDGE('',*,*,#601,.T.);
#490=ORIENTED_EDGE('',*,*,#689,.T.);
#491=ORIENTED_EDGE('',*,*,#586,.F.);
#492=ORIENTED_EDGE('',*,*,#690,.F.);
#493=ORIENTED_EDGE('',*,*,#690,.T.);
#494=ORIENTED_EDGE('',*,*,#585,.T.);
#495=ORIENTED_EDGE('',*,*,#691,.F.);
#496=ORIENTED_EDGE('',*,*,#602,.F.);
#497=ORIENTED_EDGE('',*,*,#603,.T.);
#498=ORIENTED_EDGE('',*,*,#691,.T.);
#499=ORIENTED_EDGE('',*,*,#584,.F.);
#500=ORIENTED_EDGE('',*,*,#692,.F.);
#501=ORIENTED_EDGE('',*,*,#604,.T.);
#502=ORIENTED_EDGE('',*,*,#692,.T.);
#503=ORIENTED_EDGE('',*,*,#583,.F.);
#504=ORIENTED_EDGE('',*,*,#685,.F.);
#505=ORIENTED_EDGE('',*,*,#641,.T.);
#506=ORIENTED_EDGE('',*,*,#693,.T.);
#507=ORIENTED_EDGE('',*,*,#590,.F.);
#508=ORIENTED_EDGE('',*,*,#694,.F.);
#509=ORIENTED_EDGE('',*,*,#694,.T.);
#510=ORIENTED_EDGE('',*,*,#589,.T.);
#511=ORIENTED_EDGE('',*,*,#695,.F.);
#512=ORIENTED_EDGE('',*,*,#642,.F.);
#513=ORIENTED_EDGE('',*,*,#695,.T.);
#514=ORIENTED_EDGE('',*,*,#596,.T.);
#515=ORIENTED_EDGE('',*,*,#696,.F.);
#516=ORIENTED_EDGE('',*,*,#643,.F.);
#517=ORIENTED_EDGE('',*,*,#696,.T.);
#518=ORIENTED_EDGE('',*,*,#595,.T.);
#519=ORIENTED_EDGE('',*,*,#697,.F.);
#520=ORIENTED_EDGE('',*,*,#644,.F.);
#521=ORIENTED_EDGE('',*,*,#697,.T.);
#522=ORIENTED_EDGE('',*,*,#594,.T.);
#523=ORIENTED_EDGE('',*,*,#698,.F.);
#524=ORIENTED_EDGE('',*,*,#645,.F.);
#525=ORIENTED_EDGE('',*,*,#698,.T.);
#526=ORIENTED_EDGE('',*,*,#593,.T.);
#527=ORIENTED_EDGE('',*,*,#699,.F.);
#528=ORIENTED_EDGE('',*,*,#646,.F.);
#529=ORIENTED_EDGE('',*,*,#699,.T.);
#530=ORIENTED_EDGE('',*,*,#592,.T.);
#531=ORIENTED_EDGE('',*,*,#700,.F.);
#532=ORIENTED_EDGE('',*,*,#647,.F.);
#533=ORIENTED_EDGE('',*,*,#700,.T.);
#534=ORIENTED_EDGE('',*,*,#591,.T.);
#535=ORIENTED_EDGE('',*,*,#693,.F.);
#536=ORIENTED_EDGE('',*,*,#648,.F.);
#537=ORIENTED_EDGE('',*,*,#545,.F.);
#538=ORIENTED_EDGE('',*,*,#682,.F.);
#539=ORIENTED_EDGE('',*,*,#546,.F.);
#540=ORIENTED_EDGE('',*,*,#683,.F.);
#541=ORIENTED_EDGE('',*,*,#684,.F.);
#542=ORIENTED_EDGE('',*,*,#547,.F.);
#543=ORIENTED_EDGE('',*,*,#548,.F.);
#544=ORIENTED_EDGE('',*,*,#681,.F.);
#545=EDGE_CURVE('',#701,#701,#809,.F.);
#546=EDGE_CURVE('',#702,#702,#810,.F.);
#547=EDGE_CURVE('',#703,#703,#811,.F.);
#548=EDGE_CURVE('',#704,#704,#812,.F.);
#549=EDGE_CURVE('',#705,#706,#813,.T.);
#550=EDGE_CURVE('',#705,#707,#45,.T.);
#551=EDGE_CURVE('',#707,#708,#814,.T.);
#552=EDGE_CURVE('',#709,#708,#46,.T.);
#553=EDGE_CURVE('',#709,#710,#815,.T.);
#554=EDGE_CURVE('',#711,#710,#47,.T.);
#555=EDGE_CURVE('',#711,#712,#816,.T.);
#556=EDGE_CURVE('',#713,#712,#48,.T.);
#557=EDGE_CURVE('',#713,#714,#817,.T.);
#558=EDGE_CURVE('',#715,#714,#49,.T.);
#559=EDGE_CURVE('',#716,#715,#818,.T.);
#560=EDGE_CURVE('',#717,#716,#50,.T.);
#561=EDGE_CURVE('',#718,#717,#819,.T.);
#562=EDGE_CURVE('',#719,#718,#51,.T.);
#563=EDGE_CURVE('',#719,#720,#820,.T.);
#564=EDGE_CURVE('',#720,#721,#52,.T.);
#565=EDGE_CURVE('',#721,#722,#53,.T.);
#566=EDGE_CURVE('',#722,#723,#821,.T.);
#567=EDGE_CURVE('',#723,#724,#822,.T.);
#568=EDGE_CURVE('',#724,#725,#823,.T.);
#569=EDGE_CURVE('',#725,#726,#54,.T.);
#570=EDGE_CURVE('',#727,#726,#824,.T.);
#571=EDGE_CURVE('',#727,#728,#55,.T.);
#572=EDGE_CURVE('',#728,#729,#825,.T.);
#573=EDGE_CURVE('',#729,#730,#826,.T.);
#574=EDGE_CURVE('',#730,#731,#827,.T.);
#575=EDGE_CURVE('',#732,#731,#56,.T.);
#576=EDGE_CURVE('',#733,#732,#57,.T.);
#577=EDGE_CURVE('',#733,#734,#828,.T.);
#578=EDGE_CURVE('',#734,#735,#58,.T.);
#579=EDGE_CURVE('',#736,#735,#829,.T.);
#580=EDGE_CURVE('',#736,#706,#59,.T.);
#581=EDGE_CURVE('',#737,#738,#60,.T.);
#582=EDGE_CURVE('',#738,#739,#830,.T.);
#583=EDGE_CURVE('',#739,#740,#61,.T.);
#584=EDGE_CURVE('',#740,#741,#831,.T.);
#585=EDGE_CURVE('',#742,#741,#62,.T.);
#586=EDGE_CURVE('',#742,#743,#832,.T.);
#587=EDGE_CURVE('',#743,#744,#63,.T.);
#588=EDGE_CURVE('',#744,#737,#833,.T.);
#589=EDGE_CURVE('',#745,#746,#834,.T.);
#590=EDGE_CURVE('',#745,#747,#64,.T.);
#591=EDGE_CURVE('',#748,#747,#835,.T.);
#592=EDGE_CURVE('',#749,#748,#65,.T.);
#593=EDGE_CURVE('',#750,#749,#836,.T.);
#594=EDGE_CURVE('',#751,#750,#66,.T.);
#595=EDGE_CURVE('',#752,#751,#837,.T.);
#596=EDGE_CURVE('',#746,#752,#67,.T.);
#597=EDGE_CURVE('',#753,#754,#838,.F.);
#598=EDGE_CURVE('',#755,#753,#68,.T.);
#599=EDGE_CURVE('',#756,#755,#839,.F.);
#600=EDGE_CURVE('',#757,#756,#69,.T.);
#601=EDGE_CURVE('',#758,#757,#840,.F.);
#602=EDGE_CURVE('',#758,#759,#70,.T.);
#603=EDGE_CURVE('',#760,#759,#841,.F.);
#604=EDGE_CURVE('',#754,#760,#71,.T.);
#605=EDGE_CURVE('',#761,#761,#842,.T.);
#606=EDGE_CURVE('',#762,#762,#843,.T.);
#607=EDGE_CURVE('',#763,#763,#844,.T.);
#608=EDGE_CURVE('',#764,#764,#845,.T.);
#609=EDGE_CURVE('',#765,#766,#846,.T.);
#610=EDGE_CURVE('',#767,#766,#72,.T.);
#611=EDGE_CURVE('',#767,#768,#847,.T.);
#612=EDGE_CURVE('',#769,#768,#73,.T.);
#613=EDGE_CURVE('',#770,#769,#848,.T.);
#614=EDGE_CURVE('',#770,#771,#74,.T.);
#615=EDGE_CURVE('',#771,#772,#75,.T.);
#616=EDGE_CURVE('',#773,#772,#849,.T.);
#617=EDGE_CURVE('',#774,#773,#850,.T.);
#618=EDGE_CURVE('',#775,#774,#851,.T.);
#619=EDGE_CURVE('',#776,#775,#76,.T.);
#620=EDGE_CURVE('',#776,#777,#852,.T.);
#621=EDGE_CURVE('',#778,#777,#77,.T.);
#622=EDGE_CURVE('',#779,#778,#853,.T.);
#623=EDGE_CURVE('',#780,#779,#854,.T.);
#624=EDGE_CURVE('',#781,#780,#855,.T.);
#625=EDGE_CURVE('',#782,#781,#78,.T.);
#626=EDGE_CURVE('',#783,#782,#79,.T.);
#627=EDGE_CURVE('',#784,#783,#856,.T.);
#628=EDGE_CURVE('',#784,#785,#80,.T.);
#629=EDGE_CURVE('',#785,#786,#857,.T.);
#630=EDGE_CURVE('',#786,#787,#81,.T.);
#631=EDGE_CURVE('',#787,#788,#858,.T.);
#632=EDGE_CURVE('',#788,#789,#82,.T.);
#633=EDGE_CURVE('',#790,#789,#859,.T.);
#634=EDGE_CURVE('',#790,#791,#83,.T.);
#635=EDGE_CURVE('',#792,#791,#860,.T.);
#636=EDGE_CURVE('',#792,#793,#84,.T.);
#637=EDGE_CURVE('',#794,#793,#861,.T.);
#638=EDGE_CURVE('',#794,#795,#85,.T.);
#639=EDGE_CURVE('',#796,#795,#862,.T.);
#640=EDGE_CURVE('',#765,#796,#86,.T.);
#641=EDGE_CURVE('',#797,#798,#87,.T.);
#642=EDGE_CURVE('',#797,#799,#863,.T.);
#643=EDGE_CURVE('',#799,#800,#88,.T.);
#644=EDGE_CURVE('',#800,#801,#864,.T.);
#645=EDGE_CURVE('',#801,#802,#89,.T.);
#646=EDGE_CURVE('',#802,#803,#865,.T.);
#647=EDGE_CURVE('',#803,#804,#90,.T.);
#648=EDGE_CURVE('',#804,#798,#866,.T.);
#649=EDGE_CURVE('',#705,#765,#91,.T.);
#650=EDGE_CURVE('',#706,#766,#92,.T.);
#651=EDGE_CURVE('',#707,#796,#93,.T.);
#652=EDGE_CURVE('',#708,#795,#94,.T.);
#653=EDGE_CURVE('',#709,#794,#95,.T.);
#654=EDGE_CURVE('',#710,#793,#96,.T.);
#655=EDGE_CURVE('',#711,#792,#97,.T.);
#656=EDGE_CURVE('',#712,#791,#98,.T.);
#657=EDGE_CURVE('',#713,#790,#99,.T.);
#658=EDGE_CURVE('',#714,#789,#100,.T.);
#659=EDGE_CURVE('',#715,#788,#101,.T.);
#660=EDGE_CURVE('',#716,#787,#102,.T.);
#661=EDGE_CURVE('',#717,#786,#103,.T.);
#662=EDGE_CURVE('',#718,#785,#104,.T.);
#663=EDGE_CURVE('',#719,#784,#105,.T.);
#664=EDGE_CURVE('',#720,#783,#106,.T.);
#665=EDGE_CURVE('',#721,#782,#107,.T.);
#666=EDGE_CURVE('',#722,#781,#108,.T.);
#667=EDGE_CURVE('',#723,#780,#109,.T.);
#668=EDGE_CURVE('',#724,#779,#110,.T.);
#669=EDGE_CURVE('',#725,#778,#111,.T.);
#670=EDGE_CURVE('',#726,#777,#112,.T.);
#671=EDGE_CURVE('',#727,#776,#113,.T.);
#672=EDGE_CURVE('',#728,#775,#114,.T.);
#673=EDGE_CURVE('',#729,#774,#115,.T.);
#674=EDGE_CURVE('',#730,#773,#116,.T.);
#675=EDGE_CURVE('',#731,#772,#117,.T.);
#676=EDGE_CURVE('',#732,#771,#118,.T.);
#677=EDGE_CURVE('',#733,#770,#119,.T.);
#678=EDGE_CURVE('',#734,#769,#120,.T.);
#679=EDGE_CURVE('',#735,#768,#121,.T.);
#680=EDGE_CURVE('',#736,#767,#122,.T.);
#681=EDGE_CURVE('',#805,#805,#867,.T.);
#682=EDGE_CURVE('',#806,#806,#868,.T.);
#683=EDGE_CURVE('',#807,#807,#869,.T.);
#684=EDGE_CURVE('',#808,#808,#870,.T.);
#685=EDGE_CURVE('',#754,#739,#123,.T.);
#686=EDGE_CURVE('',#753,#738,#124,.T.);
#687=EDGE_CURVE('',#755,#737,#125,.T.);
#688=EDGE_CURVE('',#756,#744,#126,.T.);
#689=EDGE_CURVE('',#757,#743,#127,.T.);
#690=EDGE_CURVE('',#758,#742,#128,.T.);
#691=EDGE_CURVE('',#759,#741,#129,.T.);
#692=EDGE_CURVE('',#760,#740,#130,.T.);
#693=EDGE_CURVE('',#798,#747,#131,.T.);
#694=EDGE_CURVE('',#797,#745,#132,.T.);
#695=EDGE_CURVE('',#799,#746,#133,.T.);
#696=EDGE_CURVE('',#800,#752,#134,.T.);
#697=EDGE_CURVE('',#801,#751,#135,.T.);
#698=EDGE_CURVE('',#802,#750,#136,.T.);
#699=EDGE_CURVE('',#803,#749,#137,.T.);
#700=EDGE_CURVE('',#804,#748,#138,.T.);
#701=VERTEX_POINT('',#1582);
#702=VERTEX_POINT('',#1584);
#703=VERTEX_POINT('',#1586);
#704=VERTEX_POINT('',#1588);
#705=VERTEX_POINT('',#1590);
#706=VERTEX_POINT('',#1591);
#707=VERTEX_POINT('',#1593);
#708=VERTEX_POINT('',#1595);
#709=VERTEX_POINT('',#1597);
#710=VERTEX_POINT('',#1599);
#711=VERTEX_POINT('',#1601);
#712=VERTEX_POINT('',#1603);
#713=VERTEX_POINT('',#1605);
#714=VERTEX_POINT('',#1607);
#715=VERTEX_POINT('',#1609);
#716=VERTEX_POINT('',#1611);
#717=VERTEX_POINT('',#1613);
#718=VERTEX_POINT('',#1615);
#719=VERTEX_POINT('',#1617);
#720=VERTEX_POINT('',#1619);
#721=VERTEX_POINT('',#1621);
#722=VERTEX_POINT('',#1623);
#723=VERTEX_POINT('',#1625);
#724=VERTEX_POINT('',#1627);
#725=VERTEX_POINT('',#1629);
#726=VERTEX_POINT('',#1631);
#727=VERTEX_POINT('',#1633);
#728=VERTEX_POINT('',#1635);
#729=VERTEX_POINT('',#1637);
#730=VERTEX_POINT('',#1639);
#731=VERTEX_POINT('',#1641);
#732=VERTEX_POINT('',#1643);
#733=VERTEX_POINT('',#1645);
#734=VERTEX_POINT('',#1647);
#735=VERTEX_POINT('',#1649);
#736=VERTEX_POINT('',#1651);
#737=VERTEX_POINT('',#1654);
#738=VERTEX_POINT('',#1655);
#739=VERTEX_POINT('',#1657);
#740=VERTEX_POINT('',#1659);
#741=VERTEX_POINT('',#1661);
#742=VERTEX_POINT('',#1663);
#743=VERTEX_POINT('',#1665);
#744=VERTEX_POINT('',#1667);
#745=VERTEX_POINT('',#1670);
#746=VERTEX_POINT('',#1671);
#747=VERTEX_POINT('',#1673);
#748=VERTEX_POINT('',#1675);
#749=VERTEX_POINT('',#1677);
#750=VERTEX_POINT('',#1679);
#751=VERTEX_POINT('',#1681);
#752=VERTEX_POINT('',#1683);
#753=VERTEX_POINT('',#1687);
#754=VERTEX_POINT('',#1688);
#755=VERTEX_POINT('',#1690);
#756=VERTEX_POINT('',#1692);
#757=VERTEX_POINT('',#1694);
#758=VERTEX_POINT('',#1696);
#759=VERTEX_POINT('',#1698);
#760=VERTEX_POINT('',#1700);
#761=VERTEX_POINT('',#1703);
#762=VERTEX_POINT('',#1705);
#763=VERTEX_POINT('',#1707);
#764=VERTEX_POINT('',#1709);
#765=VERTEX_POINT('',#1711);
#766=VERTEX_POINT('',#1712);
#767=VERTEX_POINT('',#1714);
#768=VERTEX_POINT('',#1716);
#769=VERTEX_POINT('',#1718);
#770=VERTEX_POINT('',#1720);
#771=VERTEX_POINT('',#1722);
#772=VERTEX_POINT('',#1724);
#773=VERTEX_POINT('',#1726);
#774=VERTEX_POINT('',#1728);
#775=VERTEX_POINT('',#1730);
#776=VERTEX_POINT('',#1732);
#777=VERTEX_POINT('',#1734);
#778=VERTEX_POINT('',#1736);
#779=VERTEX_POINT('',#1738);
#780=VERTEX_POINT('',#1740);
#781=VERTEX_POINT('',#1742);
#782=VERTEX_POINT('',#1744);
#783=VERTEX_POINT('',#1746);
#784=VERTEX_POINT('',#1748);
#785=VERTEX_POINT('',#1750);
#786=VERTEX_POINT('',#1752);
#787=VERTEX_POINT('',#1754);
#788=VERTEX_POINT('',#1756);
#789=VERTEX_POINT('',#1758);
#790=VERTEX_POINT('',#1760);
#791=VERTEX_POINT('',#1762);
#792=VERTEX_POINT('',#1764);
#793=VERTEX_POINT('',#1766);
#794=VERTEX_POINT('',#1768);
#795=VERTEX_POINT('',#1770);
#796=VERTEX_POINT('',#1772);
#797=VERTEX_POINT('',#1775);
#798=VERTEX_POINT('',#1776);
#799=VERTEX_POINT('',#1778);
#800=VERTEX_POINT('',#1780);
#801=VERTEX_POINT('',#1782);
#802=VERTEX_POINT('',#1784);
#803=VERTEX_POINT('',#1786);
#804=VERTEX_POINT('',#1788);
#805=VERTEX_POINT('',#1855);
#806=VERTEX_POINT('',#1858);
#807=VERTEX_POINT('',#1861);
#808=VERTEX_POINT('',#1864);
#809=CIRCLE('',#1124,0.00195);
#810=CIRCLE('',#1125,0.00195);
#811=CIRCLE('',#1126,0.00195);
#812=CIRCLE('',#1127,0.00195);
#813=CIRCLE('',#1128,0.00199999999999925);
#814=CIRCLE('',#1129,0.00200000000000014);
#815=CIRCLE('',#1130,0.0025);
#816=CIRCLE('',#1131,0.0025);
#817=CIRCLE('',#1132,0.00200000000000032);
#818=CIRCLE('',#1133,0.00200000000000025);
#819=CIRCLE('',#1134,0.00200000000000011);
#820=CIRCLE('',#1135,0.00200000000000031);
#821=CIRCLE('',#1136,0.0019);
#822=CIRCLE('',#1137,0.00399999999998835);
#823=CIRCLE('',#1138,0.00299999999999991);
#824=CIRCLE('',#1139,0.00300000000000005);
#825=CIRCLE('',#1140,0.00300000000000011);
#826=CIRCLE('',#1141,0.00399999999999378);
#827=CIRCLE('',#1142,0.00190000000000009);
#828=CIRCLE('',#1143,0.0020000000000002);
#829=CIRCLE('',#1144,0.00199999999999987);
#830=CIRCLE('',#1145,0.000500000000000011);
#831=CIRCLE('',#1146,0.00050000000000006);
#832=CIRCLE('',#1147,0.0005);
#833=CIRCLE('',#1148,0.000500000000000023);
#834=CIRCLE('',#1149,0.0005);
#835=CIRCLE('',#1150,0.000500000000000055);
#836=CIRCLE('',#1151,0.000500000000000035);
#837=CIRCLE('',#1152,0.000500000000000047);
#838=CIRCLE('',#1154,0.000500000000000011);
#839=CIRCLE('',#1155,0.000500000000000023);
#840=CIRCLE('',#1156,0.0005);
#841=CIRCLE('',#1157,0.00050000000000006);
#842=CIRCLE('',#1158,0.0012);
#843=CIRCLE('',#1159,0.0012);
#844=CIRCLE('',#1160,0.0012);
#845=CIRCLE('',#1161,0.0012);
#846=CIRCLE('',#1162,0.00199999999999925);
#847=CIRCLE('',#1163,0.00199999999999987);
#848=CIRCLE('',#1164,0.0020000000000002);
#849=CIRCLE('',#1165,0.00190000000000009);
#850=CIRCLE('',#1166,0.00399999999999378);
#851=CIRCLE('',#1167,0.00300000000000011);
#852=CIRCLE('',#1168,0.00300000000000005);
#853=CIRCLE('',#1169,0.00299999999999991);
#854=CIRCLE('',#1170,0.00399999999998835);
#855=CIRCLE('',#1171,0.0019);
#856=CIRCLE('',#1172,0.00200000000000031);
#857=CIRCLE('',#1173,0.00200000000000011);
#858=CIRCLE('',#1174,0.00200000000000025);
#859=CIRCLE('',#1175,0.00200000000000032);
#860=CIRCLE('',#1176,0.0025);
#861=CIRCLE('',#1177,0.0025);
#862=CIRCLE('',#1178,0.00200000000000014);
#863=CIRCLE('',#1179,0.0005);
#864=CIRCLE('',#1180,0.000500000000000047);
#865=CIRCLE('',#1181,0.000500000000000035);
#866=CIRCLE('',#1182,0.000500000000000055);
#867=CIRCLE('',#1215,0.0012);
#868=CIRCLE('',#1217,0.0012);
#869=CIRCLE('',#1219,0.0012);
#870=CIRCLE('',#1221,0.0012);
#871=EDGE_LOOP('',(#233));
#872=EDGE_LOOP('',(#234));
#873=EDGE_LOOP('',(#235));
#874=EDGE_LOOP('',(#236));
#875=EDGE_LOOP('',(#237,#238,#239,#240,#241,#242,#243,#244,#245,#246,#247,#248,#249,#250,#251,#252,#253,#254,#255,#256,#257,#258,#259,#260,#261,#262,#263,#264,#265,#266,#267,#268));
#876=EDGE_LOOP('',(#269,#270,#271,#272,#273,#274,#275,#276));
#877=EDGE_LOOP('',(#277,#278,#279,#280,#281,#282,#283,#284));
#878=EDGE_LOOP('',(#285,#286,#287,#288,#289,#290,#291,#292));
#879=EDGE_LOOP('',(#293));
#880=EDGE_LOOP('',(#294));
#881=EDGE_LOOP('',(#295));
#882=EDGE_LOOP('',(#296));
#883=EDGE_LOOP('',(#297,#298,#299,#300,#301,#302,#303,#304,#305,#306,#307,#308,#309,#310,#311,#312,#313,#314,#315,#316,#317,#318,#319,#320,#321,#322,#323,#324,#325,#326,#327,#328));
#884=EDGE_LOOP('',(#329,#330,#331,#332,#333,#334,#335,#336));
#885=EDGE_LOOP('',(#337,#338,#339,#340));
#886=EDGE_LOOP('',(#341,#342,#343,#344));
#887=EDGE_LOOP('',(#345,#346,#347,#348));
#888=EDGE_LOOP('',(#349,#350,#351,#352));
#889=EDGE_LOOP('',(#353,#354,#355,#356));
#890=EDGE_LOOP('',(#357,#358,#359,#360));
#891=EDGE_LOOP('',(#361,#362,#363,#364));
#892=EDGE_LOOP('',(#365,#366,#367,#368));
#893=EDGE_LOOP('',(#369,#370,#371,#372));
#894=EDGE_LOOP('',(#373,#374,#375,#376));
#895=EDGE_LOOP('',(#377,#378,#379,#380));
#896=EDGE_LOOP('',(#381,#382,#383,#384));
#897=EDGE_LOOP('',(#385,#386,#387,#388));
#898=EDGE_LOOP('',(#389,#390,#391,#392));
#899=EDGE_LOOP('',(#393,#394,#395,#396));
#900=EDGE_LOOP('',(#397,#398,#399,#400));
#901=EDGE_LOOP('',(#401,#402,#403,#404));
#902=EDGE_LOOP('',(#405,#406,#407,#408));
#903=EDGE_LOOP('',(#409,#410,#411,#412));
#904=EDGE_LOOP('',(#413,#414,#415,#416));
#905=EDGE_LOOP('',(#417,#418,#419,#420));
#906=EDGE_LOOP('',(#421,#422,#423,#424));
#907=EDGE_LOOP('',(#425,#426,#427,#428));
#908=EDGE_LOOP('',(#429,#430,#431,#432));
#909=EDGE_LOOP('',(#433,#434,#435,#436));
#910=EDGE_LOOP('',(#437,#438,#439,#440));
#911=EDGE_LOOP('',(#441,#442,#443,#444));
#912=EDGE_LOOP('',(#445,#446,#447,#448));
#913=EDGE_LOOP('',(#449,#450,#451,#452));
#914=EDGE_LOOP('',(#453,#454,#455,#456));
#915=EDGE_LOOP('',(#457,#458,#459,#460));
#916=EDGE_LOOP('',(#461));
#917=EDGE_LOOP('',(#462));
#918=EDGE_LOOP('',(#463));
#919=EDGE_LOOP('',(#464));
#920=EDGE_LOOP('',(#465));
#921=EDGE_LOOP('',(#466));
#922=EDGE_LOOP('',(#467));
#923=EDGE_LOOP('',(#468));
#924=EDGE_LOOP('',(#469,#470,#471,#472));
#925=EDGE_LOOP('',(#473,#474,#475,#476));
#926=EDGE_LOOP('',(#477,#478,#479,#480));
#927=EDGE_LOOP('',(#481,#482,#483,#484));
#928=EDGE_LOOP('',(#485,#486,#487,#488));
#929=EDGE_LOOP('',(#489,#490,#491,#492));
#930=EDGE_LOOP('',(#493,#494,#495,#496));
#931=EDGE_LOOP('',(#497,#498,#499,#500));
#932=EDGE_LOOP('',(#501,#502,#503,#504));
#933=EDGE_LOOP('',(#505,#506,#507,#508));
#934=EDGE_LOOP('',(#509,#510,#511,#512));
#935=EDGE_LOOP('',(#513,#514,#515,#516));
#936=EDGE_LOOP('',(#517,#518,#519,#520));
#937=EDGE_LOOP('',(#521,#522,#523,#524));
#938=EDGE_LOOP('',(#525,#526,#527,#528));
#939=EDGE_LOOP('',(#529,#530,#531,#532));
#940=EDGE_LOOP('',(#533,#534,#535,#536));
#941=EDGE_LOOP('',(#537));
#942=EDGE_LOOP('',(#538));
#943=EDGE_LOOP('',(#539));
#944=EDGE_LOOP('',(#540));
#945=EDGE_LOOP('',(#541));
#946=EDGE_LOOP('',(#542));
#947=EDGE_LOOP('',(#543));
#948=EDGE_LOOP('',(#544));
#949=FACE_BOUND('',#871,.T.);
#950=FACE_BOUND('',#872,.T.);
#951=FACE_BOUND('',#873,.T.);
#952=FACE_BOUND('',#874,.T.);
#953=FACE_BOUND('',#875,.T.);
#954=FACE_BOUND('',#876,.T.);
#955=FACE_BOUND('',#877,.T.);
#956=FACE_BOUND('',#878,.T.);
#957=FACE_BOUND('',#879,.T.);
#958=FACE_BOUND('',#880,.T.);
#959=FACE_BOUND('',#881,.T.);
#960=FACE_BOUND('',#882,.T.);
#961=FACE_BOUND('',#883,.T.);
#962=FACE_BOUND('',#884,.T.);
#963=FACE_BOUND('',#885,.T.);
#964=FACE_BOUND('',#886,.T.);
#965=FACE_BOUND('',#887,.T.);
#966=FACE_BOUND('',#888,.T.);
#967=FACE_BOUND('',#889,.T.);
#968=FACE_BOUND('',#890,.T.);
#969=FACE_BOUND('',#891,.T.);
#970=FACE_BOUND('',#892,.T.);
#971=FACE_BOUND('',#893,.T.);
#972=FACE_BOUND('',#894,.T.);
#973=FACE_BOUND('',#895,.T.);
#974=FACE_BOUND('',#896,.T.);
#975=FACE_BOUND('',#897,.T.);
#976=FACE_BOUND('',#898,.T.);
#977=FACE_BOUND('',#899,.T.);
#978=FACE_BOUND('',#900,.T.);
#979=FACE_BOUND('',#901,.T.);
#980=FACE_BOUND('',#902,.T.);
#981=FACE_BOUND('',#903,.T.);
#982=FACE_BOUND('',#904,.T.);
#983=FACE_BOUND('',#905,.T.);
#984=FACE_BOUND('',#906,.T.);
#985=FACE_BOUND('',#907,.T.);
#986=FACE_BOUND('',#908,.T.);
#987=FACE_BOUND('',#909,.T.);
#988=FACE_BOUND('',#910,.T.);
#989=FACE_BOUND('',#911,.T.);
#990=FACE_BOUND('',#912,.T.);
#991=FACE_BOUND('',#913,.T.);
#992=FACE_BOUND('',#914,.T.);
#993=FACE_BOUND('',#915,.T.);
#994=FACE_BOUND('',#916,.T.);
#995=FACE_BOUND('',#917,.T.);
#996=FACE_BOUND('',#918,.T.);
#997=FACE_BOUND('',#919,.T.);
#998=FACE_BOUND('',#920,.T.);
#999=FACE_BOUND('',#921,.T.);
#1000=FACE_BOUND('',#922,.T.);
#1001=FACE_BOUND('',#923,.T.);
#1002=FACE_BOUND('',#924,.T.);
#1003=FACE_BOUND('',#925,.T.);
#1004=FACE_BOUND('',#926,.T.);
#1005=FACE_BOUND('',#927,.T.);
#1006=FACE_BOUND('',#928,.T.);
#1007=FACE_BOUND('',#929,.T.);
#1008=FACE_BOUND('',#930,.T.);
#1009=FACE_BOUND('',#931,.T.);
#1010=FACE_BOUND('',#932,.T.);
#1011=FACE_BOUND('',#933,.T.);
#1012=FACE_BOUND('',#934,.T.);
#1013=FACE_BOUND('',#935,.T.);
#1014=FACE_BOUND('',#936,.T.);
#1015=FACE_BOUND('',#937,.T.);
#1016=FACE_BOUND('',#938,.T.);
#1017=FACE_BOUND('',#939,.T.);
#1018=FACE_BOUND('',#940,.T.);
#1019=FACE_BOUND('',#941,.T.);
#1020=FACE_BOUND('',#942,.T.);
#1021=FACE_BOUND('',#943,.T.);
#1022=FACE_BOUND('',#944,.T.);
#1023=FACE_BOUND('',#945,.T.);
#1024=FACE_BOUND('',#946,.T.);
#1025=FACE_BOUND('',#947,.T.);
#1026=FACE_BOUND('',#948,.T.);
#1027=PLANE('',#1123);
#1028=PLANE('',#1153);
#1029=PLANE('',#1184);
#1030=PLANE('',#1186);
#1031=PLANE('',#1188);
#1032=PLANE('',#1190);
#1033=PLANE('',#1192);
#1034=PLANE('',#1194);
#1035=PLANE('',#1196);
#1036=PLANE('',#1198);
#1037=PLANE('',#1199);
#1038=PLANE('',#1203);
#1039=PLANE('',#1205);
#1040=PLANE('',#1209);
#1041=PLANE('',#1210);
#1042=PLANE('',#1212);
#1043=PLANE('',#1222);
#1044=PLANE('',#1224);
#1045=PLANE('',#1226);
#1046=PLANE('',#1228);
#1047=PLANE('',#1230);
#1048=PLANE('',#1231);
#1049=PLANE('',#1233);
#1050=PLANE('',#1235);
#1051=PLANE('',#1237);
#1052=ADVANCED_FACE('',(#949,#950,#951,#952,#953,#954,#955),#1027,.T.);
#1053=ADVANCED_FACE('',(#956,#957,#958,#959,#960,#961,#962),#1028,.F.);
#1054=ADVANCED_FACE('',(#963),#16,.F.);
#1055=ADVANCED_FACE('',(#964),#1029,.F.);
#1056=ADVANCED_FACE('',(#965),#17,.T.);
#1057=ADVANCED_FACE('',(#966),#1030,.T.);
#1058=ADVANCED_FACE('',(#967),#18,.T.);
#1059=ADVANCED_FACE('',(#968),#1031,.T.);
#1060=ADVANCED_FACE('',(#969),#19,.T.);
#1061=ADVANCED_FACE('',(#970),#1032,.T.);
#1062=ADVANCED_FACE('',(#971),#20,.T.);
#1063=ADVANCED_FACE('',(#972),#1033,.T.);
#1064=ADVANCED_FACE('',(#973),#21,.F.);
#1065=ADVANCED_FACE('',(#974),#1034,.T.);
#1066=ADVANCED_FACE('',(#975),#22,.F.);
#1067=ADVANCED_FACE('',(#976),#1035,.T.);
#1068=ADVANCED_FACE('',(#977),#23,.T.);
#1069=ADVANCED_FACE('',(#978),#1036,.F.);
#1070=ADVANCED_FACE('',(#979),#1037,.F.);
#1071=ADVANCED_FACE('',(#980),#24,.T.);
#1072=ADVANCED_FACE('',(#981),#25,.T.);
#1073=ADVANCED_FACE('',(#982),#26,.T.);
#1074=ADVANCED_FACE('',(#983),#1038,.F.);
#1075=ADVANCED_FACE('',(#984),#27,.F.);
#1076=ADVANCED_FACE('',(#985),#1039,.F.);
#1077=ADVANCED_FACE('',(#986),#28,.T.);
#1078=ADVANCED_FACE('',(#987),#29,.T.);
#1079=ADVANCED_FACE('',(#988),#30,.T.);
#1080=ADVANCED_FACE('',(#989),#1040,.T.);
#1081=ADVANCED_FACE('',(#990),#1041,.T.);
#1082=ADVANCED_FACE('',(#991),#31,.T.);
#1083=ADVANCED_FACE('',(#992),#1042,.F.);
#1084=ADVANCED_FACE('',(#993),#32,.F.);
#1085=ADVANCED_FACE('',(#994,#995),#33,.F.);
#1086=ADVANCED_FACE('',(#996,#997),#34,.F.);
#1087=ADVANCED_FACE('',(#998,#999),#35,.F.);
#1088=ADVANCED_FACE('',(#1000,#1001),#36,.F.);
#1089=ADVANCED_FACE('',(#1002),#1043,.F.);
#1090=ADVANCED_FACE('',(#1003),#37,.F.);
#1091=ADVANCED_FACE('',(#1004),#1044,.T.);
#1092=ADVANCED_FACE('',(#1005),#38,.F.);
#1093=ADVANCED_FACE('',(#1006),#1045,.T.);
#1094=ADVANCED_FACE('',(#1007),#39,.F.);
#1095=ADVANCED_FACE('',(#1008),#1046,.F.);
#1096=ADVANCED_FACE('',(#1009),#40,.F.);
#1097=ADVANCED_FACE('',(#1010),#1047,.T.);
#1098=ADVANCED_FACE('',(#1011),#1048,.T.);
#1099=ADVANCED_FACE('',(#1012),#41,.F.);
#1100=ADVANCED_FACE('',(#1013),#1049,.F.);
#1101=ADVANCED_FACE('',(#1014),#42,.F.);
#1102=ADVANCED_FACE('',(#1015),#1050,.F.);
#1103=ADVANCED_FACE('',(#1016),#43,.F.);
#1104=ADVANCED_FACE('',(#1017),#1051,.F.);
#1105=ADVANCED_FACE('',(#1018),#44,.F.);
#1106=ADVANCED_FACE('',(#1019,#1020),#12,.F.);
#1107=ADVANCED_FACE('',(#1021,#1022),#13,.F.);
#1108=ADVANCED_FACE('',(#1023,#1024),#14,.F.);
#1109=ADVANCED_FACE('',(#1025,#1026),#15,.F.);
#1110=CLOSED_SHELL('',(#1052,#1053,#1054,#1055,#1056,#1057,#1058,#1059,#1060,#1061,#1062,#1063,#1064,#1065,#1066,#1067,#1068,#1069,#1070,#1071,#1072,#1073,#1074,#1075,#1076,#1077,#1078,#1079,#1080,#1081,#1082,#1083,#1084,#1085,#1086,#1087,#1088,#1089,#1090,#1091,#1092,#1093,#1094,#1095,#1096,#1097,#1098,#1099,#1100,#1101,#1102,#1103,#1104,#1105,#1106,#1107,#1108,#1109));
#1111=STYLED_ITEM('',(#1112),#1119);
#1112=PRESENTATION_STYLE_ASSIGNMENT((#1113));
#1113=SURFACE_STYLE_USAGE(.BOTH.,#1114);
#1114=SURFACE_SIDE_STYLE('',(#1115));
#1115=SURFACE_STYLE_FILL_AREA(#1116);
#1116=FILL_AREA_STYLE('',(#1117));
#1117=FILL_AREA_STYLE_COLOUR('',#1118);
#1118=COLOUR_RGB('',0.647058823529412,0.647058823529412,0.647058823529412);
#1119=MANIFOLD_SOLID_BREP('Part 2',#1110);
#1120=SHAPE_DEFINITION_REPRESENTATION(#1908,#1121);
#1121=SHAPE_REPRESENTATION('Part 2',(#1122),#1903);
#1122=AXIS2_PLACEMENT_3D('',#1579,#1243,#1244);
#1123=AXIS2_PLACEMENT_3D('',#1580,#1245,#1246);
#1124=AXIS2_PLACEMENT_3D('',#1581,#1247,#1248);
#1125=AXIS2_PLACEMENT_3D('',#1583,#1249,#1250);
#1126=AXIS2_PLACEMENT_3D('',#1585,#1251,#1252);
#1127=AXIS2_PLACEMENT_3D('',#1587,#1253,#1254);
#1128=AXIS2_PLACEMENT_3D('',#1589,#1255,#1256);
#1129=AXIS2_PLACEMENT_3D('',#1594,#1258,#1259);
#1130=AXIS2_PLACEMENT_3D('',#1598,#1261,#1262);
#1131=AXIS2_PLACEMENT_3D('',#1602,#1264,#1265);
#1132=AXIS2_PLACEMENT_3D('',#1606,#1267,#1268);
#1133=AXIS2_PLACEMENT_3D('',#1610,#1270,#1271);
#1134=AXIS2_PLACEMENT_3D('',#1614,#1273,#1274);
#1135=AXIS2_PLACEMENT_3D('',#1618,#1276,#1277);
#1136=AXIS2_PLACEMENT_3D('',#1624,#1280,#1281);
#1137=AXIS2_PLACEMENT_3D('',#1626,#1282,#1283);
#1138=AXIS2_PLACEMENT_3D('',#1628,#1284,#1285);
#1139=AXIS2_PLACEMENT_3D('',#1632,#1287,#1288);
#1140=AXIS2_PLACEMENT_3D('',#1636,#1290,#1291);
#1141=AXIS2_PLACEMENT_3D('',#1638,#1292,#1293);
#1142=AXIS2_PLACEMENT_3D('',#1640,#1294,#1295);
#1143=AXIS2_PLACEMENT_3D('',#1646,#1298,#1299);
#1144=AXIS2_PLACEMENT_3D('',#1650,#1301,#1302);
#1145=AXIS2_PLACEMENT_3D('',#1656,#1305,#1306);
#1146=AXIS2_PLACEMENT_3D('',#1660,#1308,#1309);
#1147=AXIS2_PLACEMENT_3D('',#1664,#1311,#1312);
#1148=AXIS2_PLACEMENT_3D('',#1668,#1314,#1315);
#1149=AXIS2_PLACEMENT_3D('',#1669,#1316,#1317);
#1150=AXIS2_PLACEMENT_3D('',#1674,#1319,#1320);
#1151=AXIS2_PLACEMENT_3D('',#1678,#1322,#1323);
#1152=AXIS2_PLACEMENT_3D('',#1682,#1325,#1326);
#1153=AXIS2_PLACEMENT_3D('',#1685,#1328,#1329);
#1154=AXIS2_PLACEMENT_3D('',#1686,#1330,#1331);
#1155=AXIS2_PLACEMENT_3D('',#1691,#1333,#1334);
#1156=AXIS2_PLACEMENT_3D('',#1695,#1336,#1337);
#1157=AXIS2_PLACEMENT_3D('',#1699,#1339,#1340);
#1158=AXIS2_PLACEMENT_3D('',#1702,#1342,#1343);
#1159=AXIS2_PLACEMENT_3D('',#1704,#1344,#1345);
#1160=AXIS2_PLACEMENT_3D('',#1706,#1346,#1347);
#1161=AXIS2_PLACEMENT_3D('',#1708,#1348,#1349);
#1162=AXIS2_PLACEMENT_3D('',#1710,#1350,#1351);
#1163=AXIS2_PLACEMENT_3D('',#1715,#1353,#1354);
#1164=AXIS2_PLACEMENT_3D('',#1719,#1356,#1357);
#1165=AXIS2_PLACEMENT_3D('',#1725,#1360,#1361);
#1166=AXIS2_PLACEMENT_3D('',#1727,#1362,#1363);
#1167=AXIS2_PLACEMENT_3D('',#1729,#1364,#1365);
#1168=AXIS2_PLACEMENT_3D('',#1733,#1367,#1368);
#1169=AXIS2_PLACEMENT_3D('',#1737,#1370,#1371);
#1170=AXIS2_PLACEMENT_3D('',#1739,#1372,#1373);
#1171=AXIS2_PLACEMENT_3D('',#1741,#1374,#1375);
#1172=AXIS2_PLACEMENT_3D('',#1747,#1378,#1379);
#1173=AXIS2_PLACEMENT_3D('',#1751,#1381,#1382);
#1174=AXIS2_PLACEMENT_3D('',#1755,#1384,#1385);
#1175=AXIS2_PLACEMENT_3D('',#1759,#1387,#1388);
#1176=AXIS2_PLACEMENT_3D('',#1763,#1390,#1391);
#1177=AXIS2_PLACEMENT_3D('',#1767,#1393,#1394);
#1178=AXIS2_PLACEMENT_3D('',#1771,#1396,#1397);
#1179=AXIS2_PLACEMENT_3D('',#1777,#1400,#1401);
#1180=AXIS2_PLACEMENT_3D('',#1781,#1403,#1404);
#1181=AXIS2_PLACEMENT_3D('',#1785,#1406,#1407);
#1182=AXIS2_PLACEMENT_3D('',#1789,#1409,#1410);
#1183=AXIS2_PLACEMENT_3D('',#1790,#1411,#1412);
#1184=AXIS2_PLACEMENT_3D('',#1793,#1415,#1416);
#1185=AXIS2_PLACEMENT_3D('',#1795,#1418,#1419);
#1186=AXIS2_PLACEMENT_3D('',#1797,#1421,#1422);
#1187=AXIS2_PLACEMENT_3D('',#1799,#1424,#1425);
#1188=AXIS2_PLACEMENT_3D('',#1801,#1427,#1428);
#1189=AXIS2_PLACEMENT_3D('',#1803,#1430,#1431);
#1190=AXIS2_PLACEMENT_3D('',#1805,#1433,#1434);
#1191=AXIS2_PLACEMENT_3D('',#1807,#1436,#1437);
#1192=AXIS2_PLACEMENT_3D('',#1809,#1439,#1440);
#1193=AXIS2_PLACEMENT_3D('',#1811,#1442,#1443);
#1194=AXIS2_PLACEMENT_3D('',#1813,#1445,#1446);
#1195=AXIS2_PLACEMENT_3D('',#1815,#1448,#1449);
#1196=AXIS2_PLACEMENT_3D('',#1817,#1451,#1452);
#1197=AXIS2_PLACEMENT_3D('',#1819,#1454,#1455);
#1198=AXIS2_PLACEMENT_3D('',#1821,#1457,#1458);
#1199=AXIS2_PLACEMENT_3D('',#1823,#1460,#1461);
#1200=AXIS2_PLACEMENT_3D('',#1825,#1463,#1464);
#1201=AXIS2_PLACEMENT_3D('',#1827,#1466,#1467);
#1202=AXIS2_PLACEMENT_3D('',#1829,#1469,#1470);
#1203=AXIS2_PLACEMENT_3D('',#1831,#1472,#1473);
#1204=AXIS2_PLACEMENT_3D('',#1833,#1475,#1476);
#1205=AXIS2_PLACEMENT_3D('',#1835,#1478,#1479);
#1206=AXIS2_PLACEMENT_3D('',#1837,#1481,#1482);
#1207=AXIS2_PLACEMENT_3D('',#1839,#1484,#1485);
#1208=AXIS2_PLACEMENT_3D('',#1841,#1487,#1488);
#1209=AXIS2_PLACEMENT_3D('',#1843,#1490,#1491);
#1210=AXIS2_PLACEMENT_3D('',#1845,#1493,#1494);
#1211=AXIS2_PLACEMENT_3D('',#1847,#1496,#1497);
#1212=AXIS2_PLACEMENT_3D('',#1849,#1499,#1500);
#1213=AXIS2_PLACEMENT_3D('',#1851,#1502,#1503);
#1214=AXIS2_PLACEMENT_3D('',#1853,#1505,#1506);
#1215=AXIS2_PLACEMENT_3D('',#1854,#1507,#1508);
#1216=AXIS2_PLACEMENT_3D('',#1856,#1509,#1510);
#1217=AXIS2_PLACEMENT_3D('',#1857,#1511,#1512);
#1218=AXIS2_PLACEMENT_3D('',#1859,#1513,#1514);
#1219=AXIS2_PLACEMENT_3D('',#1860,#1515,#1516);
#1220=AXIS2_PLACEMENT_3D('',#1862,#1517,#1518);
#1221=AXIS2_PLACEMENT_3D('',#1863,#1519,#1520);
#1222=AXIS2_PLACEMENT_3D('',#1865,#1521,#1522);
#1223=AXIS2_PLACEMENT_3D('',#1866,#1523,#1524);
#1224=AXIS2_PLACEMENT_3D('',#1869,#1527,#1528);
#1225=AXIS2_PLACEMENT_3D('',#1871,#1530,#1531);
#1226=AXIS2_PLACEMENT_3D('',#1873,#1533,#1534);
#1227=AXIS2_PLACEMENT_3D('',#1875,#1536,#1537);
#1228=AXIS2_PLACEMENT_3D('',#1877,#1539,#1540);
#1229=AXIS2_PLACEMENT_3D('',#1879,#1542,#1543);
#1230=AXIS2_PLACEMENT_3D('',#1881,#1545,#1546);
#1231=AXIS2_PLACEMENT_3D('',#1882,#1547,#1548);
#1232=AXIS2_PLACEMENT_3D('',#1885,#1551,#1552);
#1233=AXIS2_PLACEMENT_3D('',#1887,#1554,#1555);
#1234=AXIS2_PLACEMENT_3D('',#1889,#1557,#1558);
#1235=AXIS2_PLACEMENT_3D('',#1891,#1560,#1561);
#1236=AXIS2_PLACEMENT_3D('',#1893,#1563,#1564);
#1237=AXIS2_PLACEMENT_3D('',#1895,#1566,#1567);
#1238=AXIS2_PLACEMENT_3D('',#1897,#1569,#1570);
#1239=AXIS2_PLACEMENT_3D('',#1898,#1571,#1572);
#1240=AXIS2_PLACEMENT_3D('',#1899,#1573,#1574);
#1241=AXIS2_PLACEMENT_3D('',#1900,#1575,#1576);
#1242=AXIS2_PLACEMENT_3D('',#1901,#1577,#1578);
#1243=DIRECTION('',(0.,0.,1.));
#1244=DIRECTION('',(1.,0.,0.));
#1245=DIRECTION('',(0.,0.,1.));
#1246=DIRECTION('',(1.,0.,0.));
#1247=DIRECTION('',(0.,0.,1.));
#1248=DIRECTION('',(1.,0.,0.));
#1249=DIRECTION('',(0.,0.,1.));
#1250=DIRECTION('',(1.,0.,0.));
#1251=DIRECTION('',(0.,0.,1.));
#1252=DIRECTION('',(1.,0.,0.));
#1253=DIRECTION('',(0.,0.,1.));
#1254=DIRECTION('',(1.,0.,0.));
#1255=DIRECTION('',(0.,0.,1.));
#1256=DIRECTION('',(1.,0.,0.));
#1257=DIRECTION('',(-0.410555449681248,0.911835633618816,0.));
#1258=DIRECTION('',(0.,0.,1.));
#1259=DIRECTION('',(1.,0.,0.));
#1260=DIRECTION('',(0.754934800416101,-0.655799852943489,0.));
#1261=DIRECTION('',(0.,0.,1.));
#1262=DIRECTION('',(1.,0.,0.));
#1263=DIRECTION('',(0.707106781186543,0.707106781186552,0.));
#1264=DIRECTION('',(0.,0.,1.));
#1265=DIRECTION('',(1.,0.,0.));
#1266=DIRECTION('',(-0.655799852943484,0.754934800416106,0.));
#1267=DIRECTION('',(0.,0.,1.));
#1268=DIRECTION('',(1.,0.,0.));
#1269=DIRECTION('',(-0.911835633618862,0.410555449681147,0.));
#1270=DIRECTION('',(0.,0.,1.));
#1271=DIRECTION('',(1.,0.,0.));
#1272=DIRECTION('',(-0.719339800338651,0.694658370458998,0.));
#1273=DIRECTION('',(0.,0.,1.));
#1274=DIRECTION('',(1.,0.,0.));
#1275=DIRECTION('',(0.,1.,0.));
#1276=DIRECTION('',(0.,0.,1.));
#1277=DIRECTION('',(1.,0.,0.));
#1278=DIRECTION('',(0.784930570419996,-0.619583730919511,0.));
#1279=DIRECTION('',(0.754934800416103,-0.655799852943487,0.));
#1280=DIRECTION('',(0.,0.,1.));
#1281=DIRECTION('',(1.,0.,0.));
#1282=DIRECTION('',(0.,0.,1.));
#1283=DIRECTION('',(1.,0.,0.));
#1284=DIRECTION('',(0.,0.,1.));
#1285=DIRECTION('',(1.,0.,0.));
#1286=DIRECTION('',(0.356147756202408,0.934429652650209,0.));
#1287=DIRECTION('',(0.,0.,1.));
#1288=DIRECTION('',(1.,0.,0.));
#1289=DIRECTION('',(0.934429652650209,0.356147756202407,0.));
#1290=DIRECTION('',(0.,0.,1.));
#1291=DIRECTION('',(1.,0.,0.));
#1292=DIRECTION('',(0.,0.,1.));
#1293=DIRECTION('',(1.,0.,0.));
#1294=DIRECTION('',(0.,0.,1.));
#1295=DIRECTION('',(1.,0.,0.));
#1296=DIRECTION('',(0.655799852943489,-0.754934800416101,0.));
#1297=DIRECTION('',(0.619583730919511,-0.784930570419995,0.));
#1298=DIRECTION('',(0.,0.,1.));
#1299=DIRECTION('',(1.,0.,0.));
#1300=DIRECTION('',(-1.,0.,0.));
#1301=DIRECTION('',(0.,0.,1.));
#1302=DIRECTION('',(1.,0.,0.));
#1303=DIRECTION('',(-0.694658370458998,0.719339800338651,0.));
#1304=DIRECTION('',(0.707106781186552,-0.707106781186543,0.));
#1305=DIRECTION('',(0.,0.,-1.));
#1306=DIRECTION('',(1.,0.,0.));
#1307=DIRECTION('',(-0.707158158374648,-0.707055400265196,0.));
#1308=DIRECTION('',(0.,0.,-1.));
#1309=DIRECTION('',(1.,0.,0.));
#1310=DIRECTION('',(0.707106781186553,-0.707106781186542,0.));
#1311=DIRECTION('',(0.,0.,-1.));
#1312=DIRECTION('',(1.,0.,0.));
#1313=DIRECTION('',(0.707106781186548,0.707106781186548,0.));
#1314=DIRECTION('',(0.,0.,-1.));
#1315=DIRECTION('',(1.,0.,0.));
#1316=DIRECTION('',(0.,0.,1.));
#1317=DIRECTION('',(1.,0.,0.));
#1318=DIRECTION('',(0.707106781186553,-0.707106781186542,0.));
#1319=DIRECTION('',(0.,0.,1.));
#1320=DIRECTION('',(1.,0.,0.));
#1321=DIRECTION('',(0.707055400265182,0.707158158374662,0.));
#1322=DIRECTION('',(0.,0.,1.));
#1323=DIRECTION('',(1.,0.,0.));
#1324=DIRECTION('',(0.707106781186552,-0.707106781186543,0.));
#1325=DIRECTION('',(0.,0.,1.));
#1326=DIRECTION('',(1.,0.,0.));
#1327=DIRECTION('',(-0.707106781186548,-0.707106781186548,0.));
#1328=DIRECTION('',(0.,0.,1.));
#1329=DIRECTION('',(1.,0.,0.));
#1330=DIRECTION('',(0.,0.,1.));
#1331=DIRECTION('',(1.,0.,0.));
#1332=DIRECTION('',(0.707106781186552,-0.707106781186543,0.));
#1333=DIRECTION('',(0.,0.,1.));
#1334=DIRECTION('',(1.,0.,0.));
#1335=DIRECTION('',(0.707106781186548,0.707106781186548,0.));
#1336=DIRECTION('',(0.,0.,1.));
#1337=DIRECTION('',(1.,0.,0.));
#1338=DIRECTION('',(0.707106781186553,-0.707106781186542,0.));
#1339=DIRECTION('',(0.,0.,1.));
#1340=DIRECTION('',(1.,0.,0.));
#1341=DIRECTION('',(-0.707158158374648,-0.707055400265196,0.));
#1342=DIRECTION('',(0.,0.,-1.));
#1343=DIRECTION('',(1.,0.,0.));
#1344=DIRECTION('',(0.,0.,1.));
#1345=DIRECTION('',(1.,0.,0.));
#1346=DIRECTION('',(0.,0.,1.));
#1347=DIRECTION('',(1.,0.,0.));
#1348=DIRECTION('',(0.,0.,1.));
#1349=DIRECTION('',(1.,0.,0.));
#1350=DIRECTION('',(0.,0.,1.));
#1351=DIRECTION('',(1.,0.,0.));
#1352=DIRECTION('',(-0.694658370458998,0.719339800338651,0.));
#1353=DIRECTION('',(0.,0.,1.));
#1354=DIRECTION('',(1.,0.,0.));
#1355=DIRECTION('',(-1.,0.,0.));
#1356=DIRECTION('',(0.,0.,1.));
#1357=DIRECTION('',(1.,0.,0.));
#1358=DIRECTION('',(0.619583730919511,-0.784930570419995,0.));
#1359=DIRECTION('',(0.655799852943489,-0.754934800416101,0.));
#1360=DIRECTION('',(0.,0.,1.));
#1361=DIRECTION('',(1.,0.,0.));
#1362=DIRECTION('',(0.,0.,1.));
#1363=DIRECTION('',(1.,0.,0.));
#1364=DIRECTION('',(0.,0.,1.));
#1365=DIRECTION('',(1.,0.,0.));
#1366=DIRECTION('',(0.934429652650209,0.356147756202407,0.));
#1367=DIRECTION('',(0.,0.,1.));
#1368=DIRECTION('',(1.,0.,0.));
#1369=DIRECTION('',(0.356147756202408,0.934429652650209,0.));
#1370=DIRECTION('',(0.,0.,1.));
#1371=DIRECTION('',(1.,0.,0.));
#1372=DIRECTION('',(0.,0.,1.));
#1373=DIRECTION('',(1.,0.,0.));
#1374=DIRECTION('',(0.,0.,1.));
#1375=DIRECTION('',(1.,0.,0.));
#1376=DIRECTION('',(0.754934800416103,-0.655799852943487,0.));
#1377=DIRECTION('',(0.784930570419996,-0.619583730919511,0.));
#1378=DIRECTION('',(0.,0.,1.));
#1379=DIRECTION('',(1.,0.,0.));
#1380=DIRECTION('',(0.,1.,0.));
#1381=DIRECTION('',(0.,0.,1.));
#1382=DIRECTION('',(1.,0.,0.));
#1383=DIRECTION('',(-0.719339800338651,0.694658370458998,0.));
#1384=DIRECTION('',(0.,0.,1.));
#1385=DIRECTION('',(1.,0.,0.));
#1386=DIRECTION('',(-0.911835633618862,0.410555449681147,0.));
#1387=DIRECTION('',(0.,0.,1.));
#1388=DIRECTION('',(1.,0.,0.));
#1389=DIRECTION('',(-0.655799852943484,0.754934800416106,0.));
#1390=DIRECTION('',(0.,0.,1.));
#1391=DIRECTION('',(1.,0.,0.));
#1392=DIRECTION('',(0.707106781186543,0.707106781186552,0.));
#1393=DIRECTION('',(0.,0.,1.));
#1394=DIRECTION('',(1.,0.,0.));
#1395=DIRECTION('',(0.754934800416101,-0.655799852943489,0.));
#1396=DIRECTION('',(0.,0.,1.));
#1397=DIRECTION('',(1.,0.,0.));
#1398=DIRECTION('',(-0.410555449681248,0.911835633618816,0.));
#1399=DIRECTION('',(0.707106781186553,-0.707106781186542,0.));
#1400=DIRECTION('',(0.,0.,1.));
#1401=DIRECTION('',(1.,0.,0.));
#1402=DIRECTION('',(-0.707106781186548,-0.707106781186548,0.));
#1403=DIRECTION('',(0.,0.,1.));
#1404=DIRECTION('',(1.,0.,0.));
#1405=DIRECTION('',(0.707106781186552,-0.707106781186543,0.));
#1406=DIRECTION('',(0.,0.,1.));
#1407=DIRECTION('',(1.,0.,0.));
#1408=DIRECTION('',(0.707055400265182,0.707158158374662,0.));
#1409=DIRECTION('',(0.,0.,1.));
#1410=DIRECTION('',(1.,0.,0.));
#1411=DIRECTION('',(0.,0.,-1.));
#1412=DIRECTION('',(-1.,0.,0.));
#1413=DIRECTION('',(0.,0.,-1.));
#1414=DIRECTION('',(0.,0.,-1.));
#1415=DIRECTION('',(-0.911835633618816,-0.410555449681248,0.));
#1416=DIRECTION('',(0.410555449681248,-0.911835633618817,0.));
#1417=DIRECTION('',(0.,0.,-1.));
#1418=DIRECTION('',(0.,0.,-1.));
#1419=DIRECTION('',(-1.,0.,0.));
#1420=DIRECTION('',(0.,0.,-1.));
#1421=DIRECTION('',(0.655799852943489,0.754934800416101,0.));
#1422=DIRECTION('',(-0.754934800416101,0.655799852943489,0.));
#1423=DIRECTION('',(0.,0.,-1.));
#1424=DIRECTION('',(0.,0.,-1.));
#1425=DIRECTION('',(-1.,0.,0.));
#1426=DIRECTION('',(0.,0.,-1.));
#1427=DIRECTION('',(-0.707106781186552,0.707106781186543,0.));
#1428=DIRECTION('',(-0.707106781186543,-0.707106781186552,0.));
#1429=DIRECTION('',(0.,0.,-1.));
#1430=DIRECTION('',(0.,0.,-1.));
#1431=DIRECTION('',(-1.,0.,0.));
#1432=DIRECTION('',(0.,0.,-1.));
#1433=DIRECTION('',(-0.754934800416106,-0.655799852943484,0.));
#1434=DIRECTION('',(0.655799852943484,-0.754934800416106,0.));
#1435=DIRECTION('',(0.,0.,-1.));
#1436=DIRECTION('',(0.,0.,-1.));
#1437=DIRECTION('',(-1.,0.,0.));
#1438=DIRECTION('',(0.,0.,-1.));
#1439=DIRECTION('',(-0.410555449681147,-0.911835633618862,0.));
#1440=DIRECTION('',(0.911835633618862,-0.410555449681147,0.));
#1441=DIRECTION('',(0.,0.,-1.));
#1442=DIRECTION('',(0.,0.,-1.));
#1443=DIRECTION('',(-1.,0.,0.));
#1444=DIRECTION('',(0.,0.,-1.));
#1445=DIRECTION('',(-0.694658370458998,-0.719339800338651,0.));
#1446=DIRECTION('',(0.719339800338651,-0.694658370458998,0.));
#1447=DIRECTION('',(0.,0.,-1.));
#1448=DIRECTION('',(0.,0.,-1.));
#1449=DIRECTION('',(-1.,0.,0.));
#1450=DIRECTION('',(0.,0.,-1.));
#1451=DIRECTION('',(-1.,0.,0.));
#1452=DIRECTION('',(0.,0.,1.));
#1453=DIRECTION('',(0.,0.,-1.));
#1454=DIRECTION('',(0.,0.,-1.));
#1455=DIRECTION('',(-1.,0.,0.));
#1456=DIRECTION('',(0.,0.,-1.));
#1457=DIRECTION('',(0.61958373091951,0.784930570419996,0.));
#1458=DIRECTION('',(-0.784930570419996,0.619583730919511,0.));
#1459=DIRECTION('',(0.,0.,-1.));
#1460=DIRECTION('',(0.655799852943487,0.754934800416103,0.));
#1461=DIRECTION('',(-0.754934800416103,0.655799852943487,0.));
#1462=DIRECTION('',(0.,0.,-1.));
#1463=DIRECTION('',(0.,0.,-1.));
#1464=DIRECTION('',(-1.,0.,0.));
#1465=DIRECTION('',(0.,0.,-1.));
#1466=DIRECTION('',(0.,0.,-1.));
#1467=DIRECTION('',(-1.,0.,0.));
#1468=DIRECTION('',(0.,0.,-1.));
#1469=DIRECTION('',(0.,0.,-1.));
#1470=DIRECTION('',(-1.,0.,0.));
#1471=DIRECTION('',(0.,0.,-1.));
#1472=DIRECTION('',(-0.934429652650209,0.356147756202408,0.));
#1473=DIRECTION('',(-0.356147756202408,-0.934429652650209,0.));
#1474=DIRECTION('',(0.,0.,-1.));
#1475=DIRECTION('',(0.,0.,-1.));
#1476=DIRECTION('',(-1.,0.,0.));
#1477=DIRECTION('',(0.,0.,-1.));
#1478=DIRECTION('',(-0.356147756202407,0.934429652650209,0.));
#1479=DIRECTION('',(-0.934429652650209,-0.356147756202407,0.));
#1480=DIRECTION('',(0.,0.,-1.));
#1481=DIRECTION('',(0.,0.,-1.));
#1482=DIRECTION('',(-1.,0.,0.));
#1483=DIRECTION('',(0.,0.,-1.));
#1484=DIRECTION('',(0.,0.,-1.));
#1485=DIRECTION('',(-1.,0.,0.));
#1486=DIRECTION('',(0.,0.,-1.));
#1487=DIRECTION('',(0.,0.,-1.));
#1488=DIRECTION('',(-1.,0.,0.));
#1489=DIRECTION('',(0.,0.,-1.));
#1490=DIRECTION('',(0.754934800416101,0.655799852943489,0.));
#1491=DIRECTION('',(-0.655799852943489,0.754934800416101,0.));
#1492=DIRECTION('',(0.,0.,-1.));
#1493=DIRECTION('',(0.784930570419995,0.619583730919511,0.));
#1494=DIRECTION('',(-0.619583730919511,0.784930570419995,0.));
#1495=DIRECTION('',(0.,0.,-1.));
#1496=DIRECTION('',(0.,0.,-1.));
#1497=DIRECTION('',(-1.,0.,0.));
#1498=DIRECTION('',(0.,0.,-1.));
#1499=DIRECTION('',(0.,-1.,0.));
#1500=DIRECTION('',(0.,0.,-1.));
#1501=DIRECTION('',(0.,0.,-1.));
#1502=DIRECTION('',(0.,0.,-1.));
#1503=DIRECTION('',(-1.,0.,0.));
#1504=DIRECTION('',(0.,0.,-1.));
#1505=DIRECTION('',(0.,0.,-1.));
#1506=DIRECTION('',(-1.,0.,0.));
#1507=DIRECTION('',(0.,0.,1.));
#1508=DIRECTION('',(1.,0.,0.));
#1509=DIRECTION('',(0.,0.,-1.));
#1510=DIRECTION('',(-1.,0.,0.));
#1511=DIRECTION('',(0.,0.,1.));
#1512=DIRECTION('',(1.,0.,0.));
#1513=DIRECTION('',(0.,0.,-1.));
#1514=DIRECTION('',(-1.,0.,0.));
#1515=DIRECTION('',(0.,0.,1.));
#1516=DIRECTION('',(1.,0.,0.));
#1517=DIRECTION('',(0.,0.,-1.));
#1518=DIRECTION('',(-1.,0.,0.));
#1519=DIRECTION('',(0.,0.,1.));
#1520=DIRECTION('',(1.,0.,0.));
#1521=DIRECTION('',(-0.719339800338651,-0.694658370458998,0.));
#1522=DIRECTION('',(0.694658370458998,-0.719339800338651,0.));
#1523=DIRECTION('',(0.,0.,1.));
#1524=DIRECTION('',(1.,0.,0.));
#1525=DIRECTION('',(0.,0.,1.));
#1526=DIRECTION('',(0.,0.,1.));
#1527=DIRECTION('',(-0.707106781186543,-0.707106781186552,0.));
#1528=DIRECTION('',(0.707106781186552,-0.707106781186543,0.));
#1529=DIRECTION('',(0.,0.,1.));
#1530=DIRECTION('',(0.,0.,1.));
#1531=DIRECTION('',(1.,0.,0.));
#1532=DIRECTION('',(0.,0.,1.));
#1533=DIRECTION('',(0.707106781186548,-0.707106781186548,0.));
#1534=DIRECTION('',(0.707106781186548,0.707106781186548,0.));
#1535=DIRECTION('',(0.,0.,1.));
#1536=DIRECTION('',(0.,0.,1.));
#1537=DIRECTION('',(1.,0.,0.));
#1538=DIRECTION('',(0.,0.,1.));
#1539=DIRECTION('',(-0.707106781186542,-0.707106781186553,0.));
#1540=DIRECTION('',(0.707106781186553,-0.707106781186542,0.));
#1541=DIRECTION('',(0.,0.,1.));
#1542=DIRECTION('',(0.,0.,1.));
#1543=DIRECTION('',(1.,0.,0.));
#1544=DIRECTION('',(0.,0.,1.));
#1545=DIRECTION('',(-0.707055400265196,0.707158158374648,0.));
#1546=DIRECTION('',(-0.707158158374648,-0.707055400265196,0.));
#1547=DIRECTION('',(-0.707106781186542,-0.707106781186553,0.));
#1548=DIRECTION('',(0.707106781186553,-0.707106781186542,0.));
#1549=DIRECTION('',(0.,0.,1.));
#1550=DIRECTION('',(0.,0.,1.));
#1551=DIRECTION('',(0.,0.,1.));
#1552=DIRECTION('',(1.,0.,0.));
#1553=DIRECTION('',(0.,0.,1.));
#1554=DIRECTION('',(-0.707106781186548,0.707106781186548,0.));
#1555=DIRECTION('',(-0.707106781186548,-0.707106781186548,0.));
#1556=DIRECTION('',(0.,0.,1.));
#1557=DIRECTION('',(0.,0.,1.));
#1558=DIRECTION('',(1.,0.,0.));
#1559=DIRECTION('',(0.,0.,1.));
#1560=DIRECTION('',(-0.707106781186543,-0.707106781186552,0.));
#1561=DIRECTION('',(0.707106781186552,-0.707106781186543,0.));
#1562=DIRECTION('',(0.,0.,1.));
#1563=DIRECTION('',(0.,0.,1.));
#1564=DIRECTION('',(1.,0.,0.));
#1565=DIRECTION('',(0.,0.,1.));
#1566=DIRECTION('',(0.707158158374662,-0.707055400265182,0.));
#1567=DIRECTION('',(0.707055400265182,0.707158158374662,0.));
#1568=DIRECTION('',(0.,0.,1.));
#1569=DIRECTION('',(0.,0.,1.));
#1570=DIRECTION('',(1.,0.,0.));
#1571=DIRECTION('',(0.,0.,1.));
#1572=DIRECTION('',(1.,0.,0.));
#1573=DIRECTION('',(0.,0.,1.));
#1574=DIRECTION('',(1.,0.,0.));
#1575=DIRECTION('',(0.,0.,1.));
#1576=DIRECTION('',(1.,0.,0.));
#1577=DIRECTION('',(0.,0.,1.));
#1578=DIRECTION('',(1.,0.,0.));
#1579=CARTESIAN_POINT('',(0.,0.,0.));
#1580=CARTESIAN_POINT('',(-0.175095950526187,-0.110954472151308,0.002));
#1581=CARTESIAN_POINT('',(-0.098030624493025,-0.110260243031474,0.002));
#1582=CARTESIAN_POINT('',(-0.096080624493025,-0.110260243031474,0.002));
#1583=CARTESIAN_POINT('',(-0.106020931120433,-0.118250549658882,0.002));
#1584=CARTESIAN_POINT('',(-0.104070931120433,-0.118250549658882,0.002));
#1585=CARTESIAN_POINT('',(-0.155299738889492,-0.0721831705790631,0.002));
#1586=CARTESIAN_POINT('',(-0.153349738889491,-0.0721831705790631,0.002));
#1587=CARTESIAN_POINT('',(-0.144098003572845,-0.0609814352624162,0.002));
#1588=CARTESIAN_POINT('',(-0.142148003572845,-0.0609814352624162,0.002));
#1589=CARTESIAN_POINT('',(-0.132308057644093,-0.0673984757286896,0.002));
#1590=CARTESIAN_POINT('',(-0.13413172891133,-0.0682195866280514,0.002));
#1591=CARTESIAN_POINT('',(-0.133746737244769,-0.0687877924696065,0.002));
#1592=CARTESIAN_POINT('',(-0.134895335424062,-0.066523631480181,0.002));
#1593=CARTESIAN_POINT('',(-0.135658941936794,-0.0648276763323106,0.002));
#1594=CARTESIAN_POINT('',(-0.137482613204031,-0.065648787231673,0.002));
#1595=CARTESIAN_POINT('',(-0.136171013498145,-0.0641389176308412,0.002));
#1596=CARTESIAN_POINT('',(-0.139390653016649,-0.0613420679934922,0.002));
#1597=CARTESIAN_POINT('',(-0.142610292535153,-0.0585452183561432,0.002));
#1598=CARTESIAN_POINT('',(-0.144249792167512,-0.0604325553571834,0.002));
#1599=CARTESIAN_POINT('',(-0.146017559120478,-0.0586647884042171,0.002));
#1600=CARTESIAN_POINT('',(-0.151816972434085,-0.0644642017178235,0.002));
#1601=CARTESIAN_POINT('',(-0.15761638574769,-0.0702636150314299,0.002));
#1602=CARTESIAN_POINT('',(-0.155848618794724,-0.0720313819843963,0.002));
#1603=CARTESIAN_POINT('',(-0.157735955795765,-0.073670881616755,0.002));
#1604=CARTESIAN_POINT('',(-0.154939106158415,-0.0768905211352588,0.002));
#1605=CARTESIAN_POINT('',(-0.152142256521066,-0.0801101606537627,0.002));
#1606=CARTESIAN_POINT('',(-0.150632386920234,-0.0787985609478755,0.002));
#1607=CARTESIAN_POINT('',(-0.151453497819596,-0.0806222322151135,0.002));
#1608=CARTESIAN_POINT('',(-0.149757542671727,-0.0813858387278458,0.002));
#1609=CARTESIAN_POINT('',(-0.148061587523857,-0.0821494452405782,0.002));
#1610=CARTESIAN_POINT('',(-0.148882698423219,-0.0839731165078161,0.002));
#1611=CARTESIAN_POINT('',(-0.147493381682301,-0.0825344369071386,0.002));
#1612=CARTESIAN_POINT('',(-0.137133914202873,-0.0925384583650012,0.002));
#1613=CARTESIAN_POINT('',(-0.126774446723445,-0.102542479822864,0.002));
#1614=CARTESIAN_POINT('',(-0.128163763464363,-0.103981159423541,0.002));
#1615=CARTESIAN_POINT('',(-0.126163763464363,-0.103981159423541,0.002));
#1616=CARTESIAN_POINT('',(-0.126163763464363,-0.104600750999732,0.002));
#1617=CARTESIAN_POINT('',(-0.126163763464363,-0.105220342575922,0.002));
#1618=CARTESIAN_POINT('',(-0.124163763464363,-0.105220342575922,0.002));
#1619=CARTESIAN_POINT('',(-0.12547536317025,-0.106730212176754,0.002));
#1620=CARTESIAN_POINT('',(-0.117127175161881,-0.113319841460622,0.002));
#1621=CARTESIAN_POINT('',(-0.108778987153513,-0.119909470744489,0.002));
#1622=CARTESIAN_POINT('',(-0.107995642688987,-0.120589949620754,0.002));
#1623=CARTESIAN_POINT('',(-0.107212298224462,-0.121270428497018,0.002));
#1624=CARTESIAN_POINT('',(-0.105966278503869,-0.119836052376227,0.002));
#1625=CARTESIAN_POINT('',(-0.105387157257251,-0.121645643098384,0.002));
#1626=CARTESIAN_POINT('',(-0.106606359881706,-0.11783597842017,0.002));
#1627=CARTESIAN_POINT('',(-0.105257930651777,-0.121601843342307,0.002));
#1628=CARTESIAN_POINT('',(-0.106269252574227,-0.118777444650696,0.002));
#1629=CARTESIAN_POINT('',(-0.103465963616276,-0.119845887919304,0.002));
#1630=CARTESIAN_POINT('',(-0.102735244729434,-0.117928690958981,0.002));
#1631=CARTESIAN_POINT('',(-0.102004525842592,-0.116011493998659,0.002));
#1632=CARTESIAN_POINT('',(-0.0992012368846412,-0.117079937267266,0.002));
#1633=CARTESIAN_POINT('',(-0.100269680153248,-0.114276648309316,0.002));
#1634=CARTESIAN_POINT('',(-0.0983524831929262,-0.113545929422474,0.002));
#1635=CARTESIAN_POINT('',(-0.096435286232604,-0.112815210535631,0.002));
#1636=CARTESIAN_POINT('',(-0.0975037295012112,-0.110011921577681,0.002));
#1637=CARTESIAN_POINT('',(-0.0946793308096005,-0.111023243500131,0.002));
#1638=CARTESIAN_POINT('',(-0.0984451957317422,-0.1096748142702,0.002));
#1639=CARTESIAN_POINT('',(-0.0946355310535234,-0.110894016894656,0.002));
#1640=CARTESIAN_POINT('',(-0.0964451217756802,-0.110314895648038,0.002));
#1641=CARTESIAN_POINT('',(-0.0950107456548895,-0.109068875927446,0.002));
#1642=CARTESIAN_POINT('',(-0.0956912245311538,-0.10828553146292,0.002));
#1643=CARTESIAN_POINT('',(-0.096371703407418,-0.107502186998395,0.002));
#1644=CARTESIAN_POINT('',(-0.102961332691285,-0.0991539989900264,0.002));
#1645=CARTESIAN_POINT('',(-0.109550961975153,-0.090805810981658,0.002));
#1646=CARTESIAN_POINT('',(-0.111060831575985,-0.0921174106875451,0.002));
#1647=CARTESIAN_POINT('',(-0.111060831575985,-0.0901174106875449,0.002));
#1648=CARTESIAN_POINT('',(-0.111680423152176,-0.0901174106875447,0.002));
#1649=CARTESIAN_POINT('',(-0.112300014728366,-0.0901174106875447,0.002));
#1650=CARTESIAN_POINT('',(-0.112300014728366,-0.0881174106875449,0.002));
#1651=CARTESIAN_POINT('',(-0.113738694329043,-0.0895067274284627,0.002));
#1652=CARTESIAN_POINT('',(-0.123742715786906,-0.0791472599490346,0.002));
#1653=CARTESIAN_POINT('',(-0.1338659620041,-0.088378398121973,0.002));
#1654=CARTESIAN_POINT('',(-0.139876356798956,-0.0823680033271177,0.002));
#1655=CARTESIAN_POINT('',(-0.127855567209245,-0.0943887929168282,0.002));
#1656=CARTESIAN_POINT('',(-0.128209120599838,-0.0947423463074215,0.002));
#1657=CARTESIAN_POINT('',(-0.127855592899706,-0.0950959253866088,0.002));
#1658=CARTESIAN_POINT('',(-0.128209171978893,-0.0954494530867414,0.002));
#1659=CARTESIAN_POINT('',(-0.12856275105808,-0.0958029807868739,0.002));
#1660=CARTESIAN_POINT('',(-0.128916278758213,-0.0954494017076866,0.002));
#1661=CARTESIAN_POINT('',(-0.129269832148806,-0.09580295509828,0.002));
#1662=CARTESIAN_POINT('',(-0.135280201254134,-0.0897925859929521,0.002));
#1663=CARTESIAN_POINT('',(-0.141290570359462,-0.0837822168876242,0.002));
#1664=CARTESIAN_POINT('',(-0.140937016968869,-0.0834286634970309,0.002));
#1665=CARTESIAN_POINT('',(-0.141290570359462,-0.0830751101064377,0.002));
#1666=CARTESIAN_POINT('',(-0.140937016969802,-0.0827215567167777,0.002));
#1667=CARTESIAN_POINT('',(-0.140583463580142,-0.0823680033271177,0.002));
#1668=CARTESIAN_POINT('',(-0.140229910189549,-0.082721556717711,0.002));
#1669=CARTESIAN_POINT('',(-0.132852510654877,-0.0753441571830391,0.002));
#1670=CARTESIAN_POINT('',(-0.132498957264284,-0.0749906037924458,0.002));
#1671=CARTESIAN_POINT('',(-0.13320606404547,-0.0749906037924458,0.002));
#1672=CARTESIAN_POINT('',(-0.126488588158956,-0.0810009728977737,0.002));
#1673=CARTESIAN_POINT('',(-0.120478219053628,-0.0870113420031015,0.002));
#1674=CARTESIAN_POINT('',(-0.120831772444221,-0.0873648953936949,0.002));
#1675=CARTESIAN_POINT('',(-0.120478193365034,-0.0877184230938275,0.002));
#1676=CARTESIAN_POINT('',(-0.120831721065166,-0.0880720021730148,0.002));
#1677=CARTESIAN_POINT('',(-0.121185248765299,-0.0884255812522021,0.002));
#1678=CARTESIAN_POINT('',(-0.121538827844486,-0.0880720535520695,0.002));
#1679=CARTESIAN_POINT('',(-0.12189238123508,-0.0884256069426628,0.002));
#1680=CARTESIAN_POINT('',(-0.127902776029935,-0.0824152121478075,0.002));
#1681=CARTESIAN_POINT('',(-0.13391317082479,-0.0764048173529523,0.002));
#1682=CARTESIAN_POINT('',(-0.133559617434197,-0.076051263962359,0.002));
#1683=CARTESIAN_POINT('',(-0.13391317082479,-0.0756977105717657,0.002));
#1684=CARTESIAN_POINT('',(-0.13355961743513,-0.0753441571821058,0.002));
#1685=CARTESIAN_POINT('',(-0.175095950526187,-0.110954472151308,0.));
#1686=CARTESIAN_POINT('',(-0.128209120599838,-0.0947423463074215,0.));
#1687=CARTESIAN_POINT('',(-0.127855567209245,-0.0943887929168282,0.));
#1688=CARTESIAN_POINT('',(-0.127855592899706,-0.0950959253866088,0.));
#1689=CARTESIAN_POINT('',(-0.143192919250476,-0.079051440875597,0.));
#1690=CARTESIAN_POINT('',(-0.139876356798956,-0.0823680033271177,0.));
#1691=CARTESIAN_POINT('',(-0.140229910189549,-0.082721556717711,0.));
#1692=CARTESIAN_POINT('',(-0.140583463580142,-0.0823680033271177,0.));
#1693=CARTESIAN_POINT('',(-0.172132941465259,-0.113917481212235,0.));
#1694=CARTESIAN_POINT('',(-0.141290570359462,-0.0830751101064377,0.));
#1695=CARTESIAN_POINT('',(-0.140937016968869,-0.0834286634970309,0.));
#1696=CARTESIAN_POINT('',(-0.141290570359462,-0.0837822168876242,0.));
#1697=CARTESIAN_POINT('',(-0.144607132810983,-0.0804656544361035,0.));
#1698=CARTESIAN_POINT('',(-0.129269832148806,-0.09580295509828,0.));
#1699=CARTESIAN_POINT('',(-0.128916278758213,-0.0954494017076866,0.));
#1700=CARTESIAN_POINT('',(-0.12856275105808,-0.095802980786874,0.));
#1701=CARTESIAN_POINT('',(-0.159408477541107,-0.126644225035622,0.));
#1702=CARTESIAN_POINT('',(-0.155299738889492,-0.0721831705790631,0.));
#1703=CARTESIAN_POINT('',(-0.154099738889491,-0.0721831705790631,0.));
#1704=CARTESIAN_POINT('',(-0.106020931120433,-0.118250549658882,0.));
#1705=CARTESIAN_POINT('',(-0.104820931120433,-0.118250549658882,0.));
#1706=CARTESIAN_POINT('',(-0.098030624493025,-0.110260243031474,0.));
#1707=CARTESIAN_POINT('',(-0.096830624493025,-0.110260243031474,0.));
#1708=CARTESIAN_POINT('',(-0.144098003572845,-0.0609814352624162,0.));
#1709=CARTESIAN_POINT('',(-0.142898003572845,-0.0609814352624162,0.));
#1710=CARTESIAN_POINT('',(-0.132308057644093,-0.0673984757286896,0.));
#1711=CARTESIAN_POINT('',(-0.13413172891133,-0.0682195866280514,0.));
#1712=CARTESIAN_POINT('',(-0.133746737244769,-0.0687877924696065,0.));
#1713=CARTESIAN_POINT('',(-0.123742715786906,-0.0791472599490346,0.));
#1714=CARTESIAN_POINT('',(-0.113738694329043,-0.0895067274284627,0.));
#1715=CARTESIAN_POINT('',(-0.112300014728366,-0.0881174106875449,0.));
#1716=CARTESIAN_POINT('',(-0.112300014728366,-0.0901174106875447,0.));
#1717=CARTESIAN_POINT('',(-0.111680423152176,-0.0901174106875447,0.));
#1718=CARTESIAN_POINT('',(-0.111060831575985,-0.0901174106875449,0.));
#1719=CARTESIAN_POINT('',(-0.111060831575985,-0.0921174106875451,0.));
#1720=CARTESIAN_POINT('',(-0.109550961975153,-0.090805810981658,0.));
#1721=CARTESIAN_POINT('',(-0.102961332691285,-0.0991539989900264,0.));
#1722=CARTESIAN_POINT('',(-0.096371703407418,-0.107502186998395,0.));
#1723=CARTESIAN_POINT('',(-0.0956912245311538,-0.10828553146292,0.));
#1724=CARTESIAN_POINT('',(-0.0950107456548895,-0.109068875927446,0.));
#1725=CARTESIAN_POINT('',(-0.0964451217756802,-0.110314895648038,0.));
#1726=CARTESIAN_POINT('',(-0.0946355310535234,-0.110894016894656,0.));
#1727=CARTESIAN_POINT('',(-0.0984451957317422,-0.1096748142702,0.));
#1728=CARTESIAN_POINT('',(-0.0946793308096005,-0.111023243500131,0.));
#1729=CARTESIAN_POINT('',(-0.0975037295012112,-0.110011921577681,0.));
#1730=CARTESIAN_POINT('',(-0.096435286232604,-0.112815210535631,0.));
#1731=CARTESIAN_POINT('',(-0.0983524831929262,-0.113545929422474,0.));
#1732=CARTESIAN_POINT('',(-0.100269680153248,-0.114276648309316,0.));
#1733=CARTESIAN_POINT('',(-0.0992012368846412,-0.117079937267266,0.));
#1734=CARTESIAN_POINT('',(-0.102004525842592,-0.116011493998659,0.));
#1735=CARTESIAN_POINT('',(-0.102735244729434,-0.117928690958981,0.));
#1736=CARTESIAN_POINT('',(-0.103465963616276,-0.119845887919304,0.));
#1737=CARTESIAN_POINT('',(-0.106269252574227,-0.118777444650696,0.));
#1738=CARTESIAN_POINT('',(-0.105257930651777,-0.121601843342307,0.));
#1739=CARTESIAN_POINT('',(-0.106606359881706,-0.11783597842017,0.));
#1740=CARTESIAN_POINT('',(-0.105387157257251,-0.121645643098384,0.));
#1741=CARTESIAN_POINT('',(-0.105966278503869,-0.119836052376227,0.));
#1742=CARTESIAN_POINT('',(-0.107212298224462,-0.121270428497018,0.));
#1743=CARTESIAN_POINT('',(-0.107995642688987,-0.120589949620754,0.));
#1744=CARTESIAN_POINT('',(-0.108778987153513,-0.119909470744489,0.));
#1745=CARTESIAN_POINT('',(-0.117127175161881,-0.113319841460622,0.));
#1746=CARTESIAN_POINT('',(-0.12547536317025,-0.106730212176754,0.));
#1747=CARTESIAN_POINT('',(-0.124163763464363,-0.105220342575922,0.));
#1748=CARTESIAN_POINT('',(-0.126163763464363,-0.105220342575922,0.));
#1749=CARTESIAN_POINT('',(-0.126163763464363,-0.104600750999732,0.));
#1750=CARTESIAN_POINT('',(-0.126163763464363,-0.103981159423541,0.));
#1751=CARTESIAN_POINT('',(-0.128163763464363,-0.103981159423541,0.));
#1752=CARTESIAN_POINT('',(-0.126774446723445,-0.102542479822864,0.));
#1753=CARTESIAN_POINT('',(-0.137133914202873,-0.0925384583650012,0.));
#1754=CARTESIAN_POINT('',(-0.147493381682301,-0.0825344369071386,0.));
#1755=CARTESIAN_POINT('',(-0.148882698423219,-0.0839731165078161,0.));
#1756=CARTESIAN_POINT('',(-0.148061587523857,-0.0821494452405782,0.));
#1757=CARTESIAN_POINT('',(-0.149757542671727,-0.0813858387278458,0.));
#1758=CARTESIAN_POINT('',(-0.151453497819596,-0.0806222322151135,0.));
#1759=CARTESIAN_POINT('',(-0.150632386920234,-0.0787985609478755,0.));
#1760=CARTESIAN_POINT('',(-0.152142256521066,-0.0801101606537627,0.));
#1761=CARTESIAN_POINT('',(-0.154939106158415,-0.0768905211352588,0.));
#1762=CARTESIAN_POINT('',(-0.157735955795765,-0.073670881616755,0.));
#1763=CARTESIAN_POINT('',(-0.155848618794724,-0.0720313819843963,0.));
#1764=CARTESIAN_POINT('',(-0.15761638574769,-0.0702636150314299,0.));
#1765=CARTESIAN_POINT('',(-0.151816972434085,-0.0644642017178235,0.));
#1766=CARTESIAN_POINT('',(-0.146017559120478,-0.0586647884042171,0.));
#1767=CARTESIAN_POINT('',(-0.144249792167512,-0.0604325553571834,0.));
#1768=CARTESIAN_POINT('',(-0.142610292535153,-0.0585452183561432,0.));
#1769=CARTESIAN_POINT('',(-0.139390653016649,-0.0613420679934922,0.));
#1770=CARTESIAN_POINT('',(-0.136171013498145,-0.0641389176308412,0.));
#1771=CARTESIAN_POINT('',(-0.137482613204031,-0.065648787231673,0.));
#1772=CARTESIAN_POINT('',(-0.135658941936794,-0.0648276763323106,0.));
#1773=CARTESIAN_POINT('',(-0.134895335424062,-0.066523631480181,0.));
#1774=CARTESIAN_POINT('',(-0.135815519715805,-0.071674041340925,0.));
#1775=CARTESIAN_POINT('',(-0.132498957264284,-0.0749906037924458,0.));
#1776=CARTESIAN_POINT('',(-0.120478219053628,-0.0870113420031015,0.));
#1777=CARTESIAN_POINT('',(-0.132852510654877,-0.0753441571830391,0.));
#1778=CARTESIAN_POINT('',(-0.13320606404547,-0.0749906037924458,0.));
#1779=CARTESIAN_POINT('',(-0.172132941465259,-0.113917481212235,0.));
#1780=CARTESIAN_POINT('',(-0.13391317082479,-0.0756977105717657,0.));
#1781=CARTESIAN_POINT('',(-0.133559617434197,-0.076051263962359,0.));
#1782=CARTESIAN_POINT('',(-0.13391317082479,-0.0764048173529523,0.));
#1783=CARTESIAN_POINT('',(-0.137229733276311,-0.0730882549014316,0.));
#1784=CARTESIAN_POINT('',(-0.12189238123508,-0.0884256069426628,0.));
#1785=CARTESIAN_POINT('',(-0.121538827844486,-0.0880720535520695,0.));
#1786=CARTESIAN_POINT('',(-0.121185248765299,-0.0884255812522021,0.));
#1787=CARTESIAN_POINT('',(-0.159401127773232,-0.126647014268318,0.));
#1788=CARTESIAN_POINT('',(-0.120478193365034,-0.0877184230938275,0.));
#1789=CARTESIAN_POINT('',(-0.120831772444221,-0.0873648953936949,0.));
#1790=CARTESIAN_POINT('',(-0.132308057644093,-0.0673984757286896,0.002));
#1791=CARTESIAN_POINT('',(-0.13413172891133,-0.0682195866280514,0.002));
#1792=CARTESIAN_POINT('',(-0.133746737244769,-0.0687877924696065,0.002));
#1793=CARTESIAN_POINT('',(-0.134895335424062,-0.066523631480181,0.002));
#1794=CARTESIAN_POINT('',(-0.135658941936794,-0.0648276763323106,0.002));
#1795=CARTESIAN_POINT('',(-0.137482613204031,-0.065648787231673,0.002));
#1796=CARTESIAN_POINT('',(-0.136171013498145,-0.0641389176308412,0.002));
#1797=CARTESIAN_POINT('',(-0.139390653016649,-0.0613420679934922,0.002));
#1798=CARTESIAN_POINT('',(-0.142610292535153,-0.0585452183561432,0.002));
#1799=CARTESIAN_POINT('',(-0.144249792167512,-0.0604325553571834,0.002));
#1800=CARTESIAN_POINT('',(-0.146017559120478,-0.0586647884042171,0.002));
#1801=CARTESIAN_POINT('',(-0.151816972434085,-0.0644642017178235,0.002));
#1802=CARTESIAN_POINT('',(-0.15761638574769,-0.0702636150314299,0.002));
#1803=CARTESIAN_POINT('',(-0.155848618794724,-0.0720313819843963,0.002));
#1804=CARTESIAN_POINT('',(-0.157735955795765,-0.073670881616755,0.002));
#1805=CARTESIAN_POINT('',(-0.154939106158415,-0.0768905211352588,0.002));
#1806=CARTESIAN_POINT('',(-0.152142256521066,-0.0801101606537627,0.002));
#1807=CARTESIAN_POINT('',(-0.150632386920234,-0.0787985609478755,0.002));
#1808=CARTESIAN_POINT('',(-0.151453497819596,-0.0806222322151135,0.002));
#1809=CARTESIAN_POINT('',(-0.149757542671727,-0.0813858387278458,0.002));
#1810=CARTESIAN_POINT('',(-0.148061587523857,-0.0821494452405782,0.002));
#1811=CARTESIAN_POINT('',(-0.148882698423219,-0.0839731165078161,0.002));
#1812=CARTESIAN_POINT('',(-0.147493381682301,-0.0825344369071386,0.002));
#1813=CARTESIAN_POINT('',(-0.137133914202873,-0.0925384583650012,0.002));
#1814=CARTESIAN_POINT('',(-0.126774446723445,-0.102542479822864,0.002));
#1815=CARTESIAN_POINT('',(-0.128163763464363,-0.103981159423541,0.002));
#1816=CARTESIAN_POINT('',(-0.126163763464363,-0.103981159423541,0.002));
#1817=CARTESIAN_POINT('',(-0.126163763464363,-0.104600750999732,0.002));
#1818=CARTESIAN_POINT('',(-0.126163763464363,-0.105220342575922,0.002));
#1819=CARTESIAN_POINT('',(-0.124163763464363,-0.105220342575922,0.002));
#1820=CARTESIAN_POINT('',(-0.12547536317025,-0.106730212176754,0.002));
#1821=CARTESIAN_POINT('',(-0.117127175161881,-0.113319841460622,0.002));
#1822=CARTESIAN_POINT('',(-0.108778987153513,-0.119909470744489,0.002));
#1823=CARTESIAN_POINT('',(-0.107995642688987,-0.120589949620754,0.002));
#1824=CARTESIAN_POINT('',(-0.107212298224462,-0.121270428497018,0.002));
#1825=CARTESIAN_POINT('',(-0.105966278503869,-0.119836052376227,0.002));
#1826=CARTESIAN_POINT('',(-0.105387157257251,-0.121645643098384,0.002));
#1827=CARTESIAN_POINT('',(-0.106606359881706,-0.11783597842017,0.002));
#1828=CARTESIAN_POINT('',(-0.105257930651777,-0.121601843342307,0.002));
#1829=CARTESIAN_POINT('',(-0.106269252574227,-0.118777444650696,0.002));
#1830=CARTESIAN_POINT('',(-0.103465963616276,-0.119845887919304,0.002));
#1831=CARTESIAN_POINT('',(-0.102735244729434,-0.117928690958981,0.002));
#1832=CARTESIAN_POINT('',(-0.102004525842592,-0.116011493998659,0.002));
#1833=CARTESIAN_POINT('',(-0.0992012368846412,-0.117079937267266,0.002));
#1834=CARTESIAN_POINT('',(-0.100269680153248,-0.114276648309316,0.002));
#1835=CARTESIAN_POINT('',(-0.0983524831929262,-0.113545929422474,0.002));
#1836=CARTESIAN_POINT('',(-0.096435286232604,-0.112815210535631,0.002));
#1837=CARTESIAN_POINT('',(-0.0975037295012112,-0.110011921577681,0.002));
#1838=CARTESIAN_POINT('',(-0.0946793308096005,-0.111023243500131,0.002));
#1839=CARTESIAN_POINT('',(-0.0984451957317422,-0.1096748142702,0.002));
#1840=CARTESIAN_POINT('',(-0.0946355310535234,-0.110894016894656,0.002));
#1841=CARTESIAN_POINT('',(-0.0964451217756802,-0.110314895648038,0.002));
#1842=CARTESIAN_POINT('',(-0.0950107456548895,-0.109068875927446,0.002));
#1843=CARTESIAN_POINT('',(-0.0956912245311538,-0.10828553146292,0.002));
#1844=CARTESIAN_POINT('',(-0.096371703407418,-0.107502186998395,0.002));
#1845=CARTESIAN_POINT('',(-0.102961332691285,-0.0991539989900264,0.002));
#1846=CARTESIAN_POINT('',(-0.109550961975153,-0.090805810981658,0.002));
#1847=CARTESIAN_POINT('',(-0.111060831575985,-0.0921174106875451,0.002));
#1848=CARTESIAN_POINT('',(-0.111060831575985,-0.0901174106875449,0.002));
#1849=CARTESIAN_POINT('',(-0.111680423152176,-0.0901174106875447,0.002));
#1850=CARTESIAN_POINT('',(-0.112300014728366,-0.0901174106875447,0.002));
#1851=CARTESIAN_POINT('',(-0.112300014728366,-0.0881174106875449,0.002));
#1852=CARTESIAN_POINT('',(-0.113738694329043,-0.0895067274284627,0.002));
#1853=CARTESIAN_POINT('',(-0.144098003572845,-0.0609814352624162,0.002));
#1854=CARTESIAN_POINT('',(-0.144098003572845,-0.0609814352624162,0.00125));
#1855=CARTESIAN_POINT('',(-0.142898003572845,-0.0609814352624162,0.00125));
#1856=CARTESIAN_POINT('',(-0.098030624493025,-0.110260243031474,0.002));
#1857=CARTESIAN_POINT('',(-0.098030624493025,-0.110260243031474,0.00125));
#1858=CARTESIAN_POINT('',(-0.096830624493025,-0.110260243031474,0.00125));
#1859=CARTESIAN_POINT('',(-0.106020931120433,-0.118250549658882,0.002));
#1860=CARTESIAN_POINT('',(-0.106020931120433,-0.118250549658882,0.00125));
#1861=CARTESIAN_POINT('',(-0.104820931120433,-0.118250549658882,0.00125));
#1862=CARTESIAN_POINT('',(-0.155299738889492,-0.0721831705790631,0.002));
#1863=CARTESIAN_POINT('',(-0.155299738889492,-0.0721831705790631,0.00125));
#1864=CARTESIAN_POINT('',(-0.154099738889491,-0.0721831705790631,0.00125));
#1865=CARTESIAN_POINT('',(-0.123742715786906,-0.0791472599490346,0.002));
#1866=CARTESIAN_POINT('',(-0.128209120599838,-0.0947423463074215,-0.023));
#1867=CARTESIAN_POINT('',(-0.127855592899706,-0.0950959253866088,-0.023));
#1868=CARTESIAN_POINT('',(-0.127855567209245,-0.0943887929168282,-0.023));
#1869=CARTESIAN_POINT('',(-0.1338659620041,-0.088378398121973,-0.023));
#1870=CARTESIAN_POINT('',(-0.139876356798956,-0.0823680033271177,-0.023));
#1871=CARTESIAN_POINT('',(-0.140229910189549,-0.082721556717711,-0.023));
#1872=CARTESIAN_POINT('',(-0.140583463580142,-0.0823680033271177,-0.023));
#1873=CARTESIAN_POINT('',(-0.140937016969802,-0.0827215567167777,-0.023));
#1874=CARTESIAN_POINT('',(-0.141290570359462,-0.0830751101064377,-0.023));
#1875=CARTESIAN_POINT('',(-0.140937016968869,-0.0834286634970309,-0.023));
#1876=CARTESIAN_POINT('',(-0.141290570359462,-0.0837822168876242,-0.023));
#1877=CARTESIAN_POINT('',(-0.135280201254134,-0.0897925859929521,-0.023));
#1878=CARTESIAN_POINT('',(-0.129269832148806,-0.09580295509828,-0.023));
#1879=CARTESIAN_POINT('',(-0.128916278758213,-0.0954494017076866,-0.023));
#1880=CARTESIAN_POINT('',(-0.12856275105808,-0.095802980786874,-0.023));
#1881=CARTESIAN_POINT('',(-0.128209171978893,-0.0954494530867414,-0.023));
#1882=CARTESIAN_POINT('',(-0.126488588158956,-0.0810009728977737,-0.023));
#1883=CARTESIAN_POINT('',(-0.120478219053628,-0.0870113420031015,-0.023));
#1884=CARTESIAN_POINT('',(-0.132498957264284,-0.0749906037924458,-0.023));
#1885=CARTESIAN_POINT('',(-0.132852510654877,-0.0753441571830391,-0.023));
#1886=CARTESIAN_POINT('',(-0.13320606404547,-0.0749906037924458,-0.023));
#1887=CARTESIAN_POINT('',(-0.13355961743513,-0.0753441571821058,-0.023));
#1888=CARTESIAN_POINT('',(-0.13391317082479,-0.0756977105717657,-0.023));
#1889=CARTESIAN_POINT('',(-0.133559617434197,-0.076051263962359,-0.023));
#1890=CARTESIAN_POINT('',(-0.13391317082479,-0.0764048173529523,-0.023));
#1891=CARTESIAN_POINT('',(-0.127902776029935,-0.0824152121478075,-0.023));
#1892=CARTESIAN_POINT('',(-0.12189238123508,-0.0884256069426628,-0.023));
#1893=CARTESIAN_POINT('',(-0.121538827844486,-0.0880720535520695,-0.023));
#1894=CARTESIAN_POINT('',(-0.121185248765299,-0.0884255812522021,-0.023));
#1895=CARTESIAN_POINT('',(-0.120831721065166,-0.0880720021730148,-0.023));
#1896=CARTESIAN_POINT('',(-0.120478193365034,-0.0877184230938275,-0.023));
#1897=CARTESIAN_POINT('',(-0.120831772444221,-0.0873648953936949,-0.023));
#1898=CARTESIAN_POINT('',(-0.098030624493025,-0.110260243031474,0.00125));
#1899=CARTESIAN_POINT('',(-0.106020931120433,-0.118250549658882,0.00125));
#1900=CARTESIAN_POINT('',(-0.155299738889492,-0.0721831705790631,0.002));
#1901=CARTESIAN_POINT('',(-0.144098003572845,-0.0609814352624162,0.00125));
#1902=MECHANICAL_DESIGN_GEOMETRIC_PRESENTATION_REPRESENTATION('',(#1111),#1903);
#1903=(
GEOMETRIC_REPRESENTATION_CONTEXT(3)
GLOBAL_UNCERTAINTY_ASSIGNED_CONTEXT((#1904))
GLOBAL_UNIT_ASSIGNED_CONTEXT((#1907,#1906,#1905))
REPRESENTATION_CONTEXT('Part 2','TOP_LEVEL_ASSEMBLY_PART')
);
#1904=UNCERTAINTY_MEASURE_WITH_UNIT(LENGTH_MEASURE(1.E-08),#1907,'DISTANCE_ACCURACY_VALUE','Maximum Tolerance applied to model');
#1905=(
NAMED_UNIT(*)
SI_UNIT($,.STERADIAN.)
SOLID_ANGLE_UNIT()
);
#1906=(
NAMED_UNIT(*)
PLANE_ANGLE_UNIT()
SI_UNIT($,.RADIAN.)
);
#1907=(
LENGTH_UNIT()
NAMED_UNIT(*)
SI_UNIT($,.METRE.)
);
#1908=PRODUCT_DEFINITION_SHAPE('','',#1909);
#1909=PRODUCT_DEFINITION('','',#1911,#1910);
#1910=PRODUCT_DEFINITION_CONTEXT('',#1917,'design');
#1911=PRODUCT_DEFINITION_FORMATION_WITH_SPECIFIED_SOURCE('','',#1913,.NOT_KNOWN.);
#1912=PRODUCT_RELATED_PRODUCT_CATEGORY('','',(#1913));
#1913=PRODUCT('Part 2','Part 2','Part 2',(#1915));
#1914=PRODUCT_CATEGORY('','');
#1915=PRODUCT_CONTEXT('',#1917,'mechanical');
#1916=APPLICATION_PROTOCOL_DEFINITION('international standard','ap242_managed_model_based_3d_engineering',2020,#1917);
#1917=APPLICATION_CONTEXT('managed model based 3d engineering');
ENDSEC;
END-ISO-10303-21;
